<?xml version="1.0" encoding="UTF-8" standalone="no"?>
<svg xmlns:rdf="http://www.w3.org/1999/02/22-rdf-syntax-ns#" xmlns="http://www.w3.org/2000/svg" height="793.34pt" width="804pt" version="1.1" xmlns:cc="http://creativecommons.org/ns#" xmlns:dc="http://purl.org/dc/elements/1.1/" viewBox="0 0 804 793.34125">
<path d="m668.36 0-2.15 0.23047-1.93 0.42578c-17.975 5.0125-18.25 26.471-8.7871 39.559-19.912-10.8-40.026-0.2625-49.951 17.5-46.8-5.1-90.899 14.823-136.92 18.586-50.9 10.7-102.19 21.189-152.44 35.227-3.375 2.35-15.214 4.4863-11.326 10.174 36.388 10.763 72.837 24.8 111.47 23.725 39.25-2.4 76.638 13.163 115.84 11.988 41.738-3.65 81.762 11.224 122.88 15.387 7.2625-0.6 4.8621 20.35 0.28711 11.025-6.8625-12.275-23.162 15.688-8.2871 17.025 9.85-1.5-1.7 6.8379-4.875 8.8379-26.975 2.625-54.275 0.25039-81.338 2.7129-7.0375 1.375-18.825-3.9383-22.188 5.3242 5.425 8.8625 15.275 9.3492 24.5 8.0117 13.675 41.938 3.2133 86.739 11.988 129.45 1.5 23.5-0.56289 51.424 18.975 68.611 8.0375 5.4375 7.5879 16.638 14.213 23.213 11.125 12.488 27.463 17.726 42.488 23.826-0.5625 18.388 3.3375 37.025-0.0625 55.25-1.2375 5.15-5.7379-0.56328-5.7129-3.4883-3.05-18.938-6.0629-42.338-25.338-51.9-7.9-6.3875-22.626-4.6004-24.988-16.4-7.825-5.075-12.599 2.5391-10.074 9.2266-28.612 19.338-19.626 59.212-3.8633 83.537 3.4875 7.675 13.938 4.3488 18.125 9.2363-11.475 4.35-17.95 14.912-22.5 25.562-14.3-0.6375-26.948 9.2629-41.398 7.0254-7.35 15.188-23.427 0.19961-34.914 2.9746-5.5125 2.75-8.5746-3.8984-11.975-7.0234 0.025-6.9 17.487-7.7258 13.287-15.926-9.5-4.1625-13.825 5.8879-19.125 11.4-8.4375-3.2625-18.261-7.025-27.273-3.5625-1.0875 5.2125 6.8984 3.3254 7.3984 7.2754-3.5875 6.15-9.2375 12.588-5 19.938-7.8 8.6625-19.637 15.612-23.699 27.562 16.938-3.325 26.775-31.813 45.537-20.488 14.862 3.275-8.9129 32.525 10.225 28.537 6.9875 11.338 20.002 8.0875 27.977-0.4375 2.9 6.075 7.9488 9.7121 14.549 9.9746-3 7.0625-6.7625 13.825-6 22.025-12.612-2.6125-24.588-10.912-36.463-16.475-35.9-14.425-80.362 19.262-112.76-9.6875-8.65-7.35-20.925-0.30078-30.6-3.1133 8.725-16.65 22.625-42.2 3.8125-56.537 12.788 18.462 0.51211 38.938-6.4629 56.988-7.85 0.6375-16.388 1.2996-23.75-0.40039-5.075-15.738 5.6371-30.101 11.412-44.113-11.275 5.8-9.6996 24.326-16.537 32.264 0-8.5875-6.7242-41.012 12.863-37.812 9.8875 0.5875 16.862-10.526 26.637-8.8008 21.438 14.475 50.249-7.1004 49.699-30.275-19.712-17.35-22.586-51.612-51.211-57.637 6.2125-9.2875 0.9625-20.712 4.875-30.75-13.35-17.212-50.901-33.413-63.488-6.5508-1.7 10.05-15.863 12.051-15.238 22.639 6.875 5.15 11.7 19.588-2.0996 17.188-21.475-0.3125-38.487 16.199-46.725 34.799-10.062 15.562-30.3 39.364-12.5 56.639-6.225 11.5-13.988 29.275-2.4375 39.938-8.5 11.1 3.0367 20.75 8.5117 28.775-18.95 0.9375-40.824 4.975-60.924 3.5625 4.8125-5.5375 0.79883-10.426-5.7637-10.238 5.7125-11.312 0.375-24.512 0.9375-36.824 10.125-30.85 26.525-61.575 19.875-95.275 4.375-2.4375 11.138-4.4621 8.375-11.412-3.7625-21.762-5.5117-43.8-5.6367-65.9 7.425-1.2875 15.225 4.3125 22.287 1 9.5875-22.462 0.975-47.188-3.9375-70.176-3.9625-18.25-24.225-24.974-33.6-39.986 17.938-4.075 20.25-24.188 26.725-38.275 3.0875-29.525-40.888-44.488-58.4-22.113-10.188 10.575-9.4117 27.476-4.1992 39.826-6.225 20.862-33.663 8.2746-45.988 22.6-23.912 22.338-22.375 57.187-31.375 86.137-1.7875 14.425-21.074 35.926-5.6367 48.176-4.325 5.9-11.512 11.05-9.375 19.225-20.775 19.725 8.8 61.151 33.812 47.738 5.075 33.338-10.775 75.912 2.5254 112.97-10.412 13.738 13.462 13.899 17.762 18.674-25.938 5.3125-57.062 4.7254-85 6.4629-2.7679-0.03-4.2175 2.63-5.98 4.33v5.6367c4.7125 3.9625 3.9758-4.1746 5.6758-6.7871 2.45 4.6125 6.0496 9.5125-1.6504 10 29.413 16.5 60.375 30.288 88.563 49.062 168.95 82.7 333.75 173.22 503.15 255.07h9.8242c46.25-11.138 92.701-21.562 140.18-26.199 72.162-16.712 147-21.512 219.1-40.1 2.7125-1.25 0.92461-4.2512-1.2129-4.8887-59.35-23.9-116.64-54.786-172.05-85.398 38.838-8 82.575-12.512 123.4-19.062 7.025-0.625 23.338 0.89922 20.713-9.8008-67.538-41-139.79-73.488-209.29-110.99-4.4375-1.7125-9.9008-7.1359-14.301-2.5859-5.375-35.225-1.1746-71.301-8.0371-106.3-3.9125-18.762-24.101-26.413-36.801-38.363-2.825-22.625-0.34961-45.824-0.59961-68.799 2.0625-3.5875 6.4375-3.5883 10-2.8633 24.325 4.7 49.662-10.55 73.287 0.46289 18.625 10 44.051 19.188 62.264 3.375 11.738-9.9125 28.774 0.76289 40.387-7.2246 12.475-23.912-17.013-41.838-23.838-62.5-7.175-22.6-35.862-36.026-30.637-62.238-2.1-23.7-0.5-49.137-12.812-70.537-7.325-14.638-5.2-31.562-9.3125-47.037 8.25 1.025 15.412 6.3375 23.625 7.0625 8.3125-2.8125 1.3742-14.476-4.5508-16.363-40.175-8.6-82.325-9.4996-122.75-10.537-5.3375-5.6125 0.13906-9.5875 5.7891-10.688 3.8125-10.525-13.55-14.013-5.3125-25.838 40.438 1.85 80.287-5.8996 120.54-8.3496 46.45 0.0875 93.425 1.7258 139.15-8.0742 24.462-4.9125 51.012-6.4008 72.512-20.301v-1.125c-46.188-11.638-91.113-27.762-137.09-40.162-47.812-11.3-95.975-21.389-143.53-33.764-5.525-5.25-8.3375-13.137-11.125-20.199-8.7375-0.2875-21.324 3.3992-27.074-3.1758 9.1875-13.638 7.6-38.46-13.312-38.785l-1.39-0.11273c-1.97-0.24882-1.3-0.10783-3.13-0.19727zm5.1797 2.8281c16.111 0.30232 17.231 30.925-2.2812 28.836-16.575 4.2375-20.998-25.963-5.5234-26.926 2.8969-1.3781 5.5032-1.9533 7.8047-1.9102zm-14.781 31.623c3.0625 1.125 7.0879 1.6504 8.7754 4.7754-2.6625-1.075-12.288-1.3254-8.7754-4.7754zm-19.539 3.4902c3.5828-0.05938 6.6844 0.49102 6.7031 3.3223-7.975-0.7125-16.563-2.4621-22.488 4.2129 0.825-3.225 2.325-6.9492 6.1875-7.1992 1.95 0.39375 6.0148-0.27656 9.5977-0.33594zm41.428 1.7969c5.7375 3.925-18.025 7.8008-20.412 0.42578 6.8875 2.0375 13.8 3.5367 20.412-0.42578zm-47.701 3.4375c6.9 0.0875 13.851 0.87539 20.613 2.3379-1.9625 6.85-9.8867 11.551-14.637 16.014-2.0875 5.1875-29.988-1.7504-21.613-7.0879 3.9875 6.15 14.138 6.4879 21.613 7.0879-4.1625-4.8-19.589-5.4383-6.3516-8.7383-10.462 1.9875-3.9375-7.6758 0.375-9.6133zm56.414 0.12695c2.853 0.16116-1.2055 5.0305-1.6758 0.26172 0.72031-0.21094 1.2682-0.28474 1.6758-0.26172zm15.072 0.96289c8.6845-0.27304 10.736 10.194 11.789 17.023-10.2 7.8125-23.5 6.4883-28.938-5.6992 7.9875 1.3625 9.2383 12.786 18.488 6.9609 14.138-0.8125 4.3738-14.125-2.2012-18.225 0.29414-0.03164 0.58118-0.05174 0.86133-0.06055zm-27.109 3.4707c3.3313-0.03623-2.2215 6.382-2.0137 0.46484 0.88125-0.32344 1.5378-0.45967 2.0137-0.46484zm-7.3476 0.23828c5.6172 0.31075 4.6223 10.158 6.9219 14.451 3.5 11.762-11.338 11.164-16.588 4.8887-1.2375-7.5125 5.5492-12.776 7.6992-19.113 0.73359-0.18867 1.3857-0.25871 1.9668-0.22656zm26.564 0.19141c5.442-0.02035 11.3 1.3734 11.869 7.6602-3.1125 8.9-26.062-5.7629-15.5-7.4629 1.1414-0.1125 2.375-0.19257 3.6309-0.19726zm-34.68 1.5098c6.6 2.75-14.538 17.301-3.0879 21.926 6.125 1.85 14.674 10.738 19.762 2.4375 7.575-4.5625 1.2258-12.374 0.23828-18.574 2.35 4.1125 12.262 15.662 3.4121 19.662-9.5 10.3-21.787 0.41211-30.762-5.1504 0.725-7.6375 7.0375-13.551 10.438-20.301zm-6.2383 2.5879c-2.125 8.625-13.875 9.7875 0 0zm-48.678 8.5527c3.1915-0.10535 6.2617 0.25 6.6523 3.0469-27.1 12.05-54.825 25.802-76.25 46.414 21.575-14.712 43.225-30.175 67.725-39.875-26.875 17.9-54.2 35.612-77.6 58.25-23.925 3.1375 2.3387-10.401 7.2012-17.201-12.588 3.125-19.925 22.951-34.588 14.326 25.7-17.55 53.775-33.288 79.775-49.275-34.45 10.188-67.538 52.511-106 49.174 33.762-19.15 69.625-39.711 107.12-53.111 3.675 2.3625 13.898-6.9504 2.3359-2.9004-33.288 12.138-65.273 27.9-96.023 45.588-11.362 5.35-23.126 14.562-35.951 10.75 48.7-27.188 99.225-53.626 154.97-62.176-50.938 1.625-98.048 30.589-143.65 53.014-8.525 3.65-16.589 12.874-26.602 7.8242 28.9-17.512 62.875-31.675 91.062-46.588-33.962 10.725-64.85 30.126-96.812 45.576-2.4875-0.125-8.0367 2.0484-9.2617-1.7891 21.8-12.838 48.15-21.187 68.75-34.137-23.925 6.975-45.675 19.837-67.9 30.725-5.1875 5.0875-15.5 3.9133-20.562 0.92578 34.6-17.75 73.975-29.663 108.72-42.588-33.762 7.025-64.774 20.738-96.611 33.338-10.325 4.95-22.012 13.788-33.35 9.4629 22.05-10.775 45.487-18.275 68.449-26.713 3.2875-0.325 13.238 0.23789 8.8633-4.5371-25.388 6.0625-50.101 15.724-73.639 27.111-7 4.6-15.375 8.9125-23.6 4 18.312-4.625 37.1-13.349 53.25-21.824-22.362 2.9125-46.563 25.474-71.801 21.611 5.2375-7.5625 22.564-2.925 27.451-12.375-15.212 2.2625-29.725 13.126-45.375 8.4883 36.4-7.7875 73.988-18.063 110.96-26.363-2.2125 5.825-14.575 2.0754-16.963 7.9004 8.225-1.3625 16.363-3.7875 23.213-8.6875 54.312-5.0125 105.72-27.35 160.7-27.125 1.4484 0.03281 3.4074-0.19656 5.3223-0.25977zm82.148 1.752c6.5472 10.824 19.252 3.2843 29.742 2.834 89.825 24 181.87 41.923 270.01 71.461-13.475 6.4125-31.125-2.85-46.1-2.75-45.45-19.125-93.85-30.8-141.34-43.812 43.275 14.912 90.725 26.913 134.9 42.588-12.575 5.6375-30.313 8.7629-44.051 4.9004 1.625-0.5375 4.8633-1.5883 6.4883-2.1133-48.325-25.262-99.525-43.4-151.1-60.475 12.325 10.025 32.275 11.226 47.15 17.951 33.288 9.45 63.536 26.412 95.086 40.1-9.3125-1.95-18.975 2.6238-28.412 5.7988-13.062-8.3125-26.149-17.048-40.111-23.773 9.1625 10.313 26.275 13.288 34.438 24.062-25.588-5.1875-44.438-25.1-68.463-35 13.2 11.775 32.65 16.9 45.125 29.938-2.2875 4.075-11.575 5.4234-13.588 0.14844-31.475-24.638-65.875-46.637-104.22-58.912 36.512 17.012 74.599 34.913 104.07 62.738-4.4 10.762-15.975-12.476-21.162-9.1758 3.7375 4.9125 22.425 14.401 7.125 14.826-14.288-11.225-27.587-24.813-43.512-33.301 11.362 12.925 29.225 20.2 39.85 34.125-4.7 14-25.264-15.162-17.639 0.9375-32.688-12.812-52.274-44.388-79.049-65.9-4.4875-10.7-12.926 4.5996-16.863-4.0879 4.2773-3.7031 4.0736-8.5048 1.6211-13.107zm-71.021 2.0957c5.0875 0.05 14.764 2.4367 16.414 6.5117-21.762 13.038-39.027 31.677-58.102 48.102-4.2375 2.575-9.7359 9.3125-15.086 6.625 20.5-20.938 43.699-38.875 68.299-54.812 1.45-3.3375-2.5492-0.65-3.8867 0-22.225 15.775-44.625 31.6-63.5 51.412-3.8 5.0375-15.463 10.5-18.15 5.9004 24.038-20.462 47.387-42.213 75.512-57.113 2.625-1.575 0.46328-3.0758-1.6367-1.9258-29.212 16.2-53.587 39.4-78.975 60.713-1.35-1.8125-9.5 3.1-8.75-1.6875 23.662-21.15 49.3-39.9 76.938-55.6-1.8875-6.0375 7.2488-5.625 10.924-8.125zm28.062 3.3633c1.5625 1.7625 3.1633 3.4875 4.8008 5.1875-16 20.875-25.749 45.586-39.074 68.086-3.725 1.6125-10.339-3.125-6.4766-6.8125 13.325-19.525 24.351-40.85 39.826-58.812 4.45-1.7-2.6887-4.7234 0.92383-7.6484zm-91.574 0.42383c-17.425 3.2875 17.162-0.2125 0 0zm-12.332 3.5195c-0.32925-0.02744-0.83047 0.03047-1.5312 0.19336-2.9 1.6625-6.9125 2.4129-8.875 5.0879 0.84961 3.1492 13.589-5.016 10.406-5.2812zm94.707 0.33008c-8.3125 14.588-40.275 36.452-40.537 61.289 7.875 19.225 32.038 23.762 50.75 24.537 5.6125 0.5125 11.824 4.3117 10.236 10.824-42.538-1.55-82.662-21.288-125.6-16.75-39.412 3.15-76.95-15.712-116.6-11.975-29.325-3.225-63.151-5.7008-88.051-19.613 29.912 7.225 60.863 1.5141 90.963 6.5391 28.925 11.738 60.312-2.5141 89.85 5.2734 19.6 5.975 41.625 5.5254 60.688-2.0371 24.512-17.238 42.063-43.063 68.301-58.088zm87.074 0.41406c30.438 11.45 64.102 26.675 94.477 41.687-28.7-17.337-61.514-32.712-94.477-41.687zm-70.961 1.7246c5.175 0.4-2.2391 8.8238-3.0391 10.986-9.2 18.412-19.288 36.589-26.5 55.951 14.188-19.4 20.401-45.612 35.301-64.687-9.2875 23.375-18.288 46.936-27.4 70.361-0.45 1.3375-0.67539 4.5887 1.4746 2.5137 8.075-23.925 18.051-47.487 28.826-70.162 0.3125 16.675-15.338 37.099-14.613 54.986 5.8375-18.262 11.551-36.6 19.326-54.15 5.2625 13.7-1.5125 32.062-2.3125 47.312 10.75-7.65-3.0008-41.212 14.387-45.562 7.6125 22.725 11.537 47.775 13.037 72.025-12.888 1.1-4.9867-13.95-9.3242-21.438-3.2125 4.0875 3.425 19.613-6.75 14.676-2.6625-20.225 4.0246-43.539-0.46289-61.826-4.2125 17.637 2.0746 41.214-3.0879 60.664-12.425 3.3875-6.5863-9.8387-5.6738-16.951-7.2 1.6125 0.67383 18.388-10.139 17.438-3.45-3.35 3.6379-14.624 0.58789-17.012-2.9625 5.9875-3.0367 14.575-6.5742 20.875-11.912 8.025-24.65-3.8258-36.463-6.3008 12.738-23.275 23.688-48.462 39.4-69.699zm-12.514 1.4004c-5.225 11.25-22.45 31.049-30.662 46.949-1.5125 1.925-7.0883 16.075-9.4883 8.9629 4.7-23.088 25.438-39.4 40.15-55.912zm42.389 2.3867c20.112 16.575 27.874 47.062 37.361 71.937 3.0625 4.55-3.5863 7.2133-7.0488 5.8008-8.9375-22.712-11.513-48.026-24.713-69.076-1.175-1.25-3.3887-1.9754-1.7637 0.41211 11.05 19.525 14.15 42.263 22.438 62.963 2.3125 6.1 0.35117 8.0387-5.8613 5.8262-4.9-15-3.0754-34.488-12.275-46.801 4.625 14.988 6.8746 30.587 8.9121 46.1-8.5625 4.4625-6.5363-6.8129-7.2988-10.4 0.675-22.438-9.925-46.037-9.75-66.762zm27.398 1.9883c17.1 14.812 35.738 29.487 53.25 44.125-15.312-16.875-34.138-32.075-53.25-44.125zm-10.037 2.1992c26.225 17.55 46.25 48.763 75.35 64.963 25.025 12.925 48.05-14.663 73.463-4.4629 24.112-4.95 47.488 3.7 71.301-2.0625 19.75-7.875 39.962 3.8254 60.037 1.4004 1.65 3.9-6.0254 4.4242-9.0254 3.5742-53.438 9.8875-107.36 16.988-161.64 15.5-45.55-0.3625-90.175 11.851-135.81 9.1133-1.15-5.125 3.9871-8.7137 7.1621-11.826 21.362-1.1375 47.562 5.7383 66.188-8.5742-1.6125-13.15-15.462-19.025-19.949-30.725-6-14.388-26.314-19.975-27.076-36.9zm28.701 4.8867c-0.175 6.3625 6.4125 0.0625 0 0zm-31.551 2.3516c14.562 15.15 20.312 39.048 32.574 57.086 5.075 5.2375-5.8238 9.7375-6.9863 3.25-7.4625-20.55-15.925-40.911-25.588-60.336zm37.213 2.3125c6.8625 7.4375 16.638 12.211 25.213 17.361-7.1375-7.1-15.588-13.861-25.213-17.361zm10.375 0.77344c5.175 8.85 10.462 2.325 0 0zm18.986 0c4.65 3.85 11.888 7.1891 18.15 9.1016-4.1125-4.55-11.788-7.3891-18.15-9.1016zm-101.17 0.48828c-3.3 9.6625-2.9375 20.025-5.3125 29.875 5.7-5.4 6.85-26.662 5.3125-29.875zm133.6 4.5117c22.9 10.462 48.362 24.1 72.188 35.312-21.912-14.15-46.85-27.338-72.188-35.312zm-43.037 0.42578c13.238 10.975 28.45 20.125 42.713 29.912-11.712-12.5-27.9-21.25-42.713-29.912zm-74.6 1.1133c1.775 9.8-1.8008 25.15 3.8867 32.475-3.5375-9.95 2.1133-26.812-3.8867-32.475zm189.61 3.9121c30.038 14.375 66.088 21.436 98.188 33.236 6.525 1.475 0.43711-3.6742-2.7129-3.7617-32.325-8.3-62.937-21.937-95.475-29.475zm-156.06 4.8496c10.638 7.575 15.675 20.362 23.787 30.25 3.95 2.8375 3.2633 10.225-1.0117 12.15-8.975-13.338-16.325-27.7-22.775-42.4zm141.43 2.25c20.262 9.25 41.962 18.225 63.475 25.338-19.15-10.175-42.037-18.775-63.475-25.338zm-87.35 16.15c3.1625 4.7125 7.0859 8.9996 12.148 11.725-3.175-4.7125-7.1109-8.9996-12.148-11.725zm-122.39 12.838c-5 10.988 3 6.675 0 0zm29.209 11.33c11.865 0.0649-15.704 7.6074-5.0332 0.24414 2.1574-0.17812 3.8058-0.25085 5.0332-0.24414zm-4.0098 6.4941c6.1324 0.044 0.15312 10.509-2.8106 13.188-0.7875-3.6375-6.5875-9.7754-1.9375-12.025 2.0625-0.82226 3.6124-1.1702 4.748-1.1621zm-4.0488 17.062c1.6 4.125 1.7504 12.674-0.28711 17.512-5.1-3.0375-1.0129-12.274 0.28711-17.512zm-15.963 10.312c6.375 1.25-5.3375 6.0625 0 0zm2.7949 3.6797c3.2816 0.30473 9.4602 12.039 0.28125 8.7578 3.9-8.5-11.263 1.8125-0.58789-8.75 0.0992-0.0148 0.20078-0.0176 0.30664-0.008zm-9.1191 5.0703c6.1875-0.0875-1.9625 6.425 0 0zm18.375 8.7246c9.75 1.875-2.475 19.812 0 0zm-8.2012 5c2.45 5.3375-9.1 5.525 0 0zm-60.162 6.4883c19.375 4.5125 40.3-2.4633 60.85 1.0117 2.15 7.85-8.2121 3.7125-12.475 4.875-29.512-3-59.312 3.3133-88.85-0.13672 7.8625-9.5 28-2.1375 40.475-5.75zm70.455 1.123c13.957 0.26856-8.8172 8.7934-1.4668 0.002 0.52891-0.009 1.0166-0.0106 1.4668-0.002zm37.094 0.0293c25.313-0.11399 50.633 3.7402 75.877 5.709 6.2375 1.6 20.3-1.1234 17.438 9.9766-40.138-7.4125-80.388-9.8141-121.15-11.164-1.2375-8.075 11.588-2.0609 16.988-4.2109 3.6156-0.19531 7.2315-0.29426 10.848-0.31054zm-97.289 9.4746c15.989-0.0666 31.988 0.2539 47.965 0.22265-0.725 8.325-7.2742 23.562 6.0508 23.438-5.4125 4.6875 3.2258 14.313 5.4258 4.1758 2.2-8.2125 11.575-3.4633 16.062-7.7383-4.4375-5.1-6.3375-12.863-4.25-19.4 32.175-1.925 64.387 3.7008 96.537 5.7383-1.3625 37.6 24.562 73.012 17.375 112.07-5.4875 25.45 18.563 42.726 29.525 62.264 2.2875 23.5 25.623 38.136 30.898 60.236-6.5875 14.05-30.686-1.8992-41.236 11.613-23.162 18.088-46.512-5.7133-70.062-8.6133-17.6-8.2-34.425 8.1254-52.588 4.9629-22.825 2.5375-42.926-9.4129-62.863-18.338-11.5-5.15-16.025-16.5-19.812-27.5-27.238-19.488-17.65-55.9-22.062-84.213-9.375-38.012 2.1637-77.712-9.6113-115.57-1.9375-2.9875 2.0742-2.2254 3.8867-2.6504 9.5766-0.47812 19.166-0.65727 28.76-0.69726zm59.678 0.0371c6.3976 0.0114 0.13086 11.474 0.1875 15.473-7.1875 3.7875-3.7746-12.625-2.5996-15.088 0.95391-0.26484 1.7503-0.38594 2.4121-0.38476zm-8.9004 0.27343c5.2 0.6-0.94883 10.549 2.0762 15.236-6.3-1.6375-2.0262-10.824-2.0762-15.236zm13.438 7.5879c5.425 6.4-1.3625 12.475 0 0zm-60.824 6.748c-1 0.0204-2.0781 0.26172-3.2617 0.78906-5.1625 3.6 7.7375 12.449 0.6875 18.199-5.825 1.65-15.313 9.5762-17.463-0.17383-4.8375-1.775-2.7508 17.987 4.0742 11.262 10.188-9.4 33.163-13.874 38.113 1.6758 16.05-6-7.6375-15.827-15.5-12.414-2.1125-5.2 8.2254-5.4363 6.5879-10.799-4.7461-2.3309-7.8381-8.649-13.238-8.5391zm146.27 0.12695c-1.0357 0.049-2.1875 0.32891-3.4609 0.88672-7.6625 0.4375-15.687 9.225-7.5996 15.188 10.262 7.925-7.3129 32.262 6.4746 32.188-8.725-19.812 19.662-16.574 12.812-1.8867-19.25-9.125 1.6004 10.412 8.7129 13.762 4.825-15.138-11.987-28.138-9.6621-43.525 1.575-5.9938-0.0273-16.954-7.2773-16.611zm-31.107 1.8594c-1.2203 0.012-2.5524 0.12187-4.0039 0.33984-4.725-0.425-10.625 4.1883-5.4629 8.3008 6.975 5.8 4.0133 25.536 16.113 20.711 6.075-3.8 2.5492 7.8516 9.0117 5.4141-3.8906-12.984 2.6465-34.945-15.658-34.766zm-111.49 3.31c5.4125 11.138-5.825 13.588 0 0zm140.11 0.38672c4.925 0.6125 1.7113 9.4629 3.2988 13.4-10.25 1.1875-5.7738-7.7379-3.2988-13.4zm-25.83 4.4629c8.1171 0.15225-1.227 9.4172-3.1074 0.27539 1.241-0.20976 2.2677-0.29114 3.1074-0.27539zm-125.86 1.5645c-0.61497-0.0146-1.3906 0.0558-2.3516 0.23632-0.65703 7.9297 8.2963-0.0949 2.3516-0.23632zm77.578 1.2188c-0.36562 0.006-0.73086 0.0641-1.0918 0.17968 4.5125 10.512-11.362-2.0387-14.137 5.7988 5.4125 1.55 7.7125 10.239 0.75 10.789-6.05 5.55 10.613 3.9371 7.2129 12.787-5.4125-1.9875-14.663 0.0996-7.4629 5.4746 11.75-2.7375 23.762-0.39961 35.625-0.34961 0.2375-12.125-19.813-1.175-24.426-6.375-6.7125-8.4375 11.963-5.6871 3.7383-10.912-7.5375-1.275-6.1129-12.101 1.8496-9.2637 8.9531 3.1172 3.4257-8.2235-2.0586-8.1289zm51.783 6.6035c12.238 7.75-14.212 7.85 0 0zm22.299 4.8184c14.118-0.0358-1.8242 12.651-1.4609 0.0449 0.51953-0.0289 1.0055-0.0438 1.4609-0.0449zm-590.43 1.5664c18.204 0.28625 35.759 21.785 23.52 38.191-8.15-3.5625-13.75 2.1742-3.5879 2.8242-6.375-0.425-10.513 2.8625-8.5508 10.875-3.3125-2.5-14.138-2.8113-7.9375 1.9512 11.262 6.9375 7.95-7.7883 16.875-6.4258-2.775 14.638-19.3 24.15-32.688 16.213-2.9125 5.3 13.638 4.2125 16 6.625-8.9125 17.038-30.55-1.4508-35.375-11.363 4.1625-3.0125 13.438-8.6 12.176-13.438-11.788 4.775-15.051-18.488-2.8262-12.375 2.2-11.725-4.7738-32.774 14.639-31.824 2.5422-0.90156 5.1553-1.2948 7.7559-1.2539zm454.41 1.2539c-3.5125 2.0125-8.8504 1.8867-10.963 5.5742 2.8625-0.5625 9.7633-4.4754 7.8008 1.2871-3.4625 8.725-16.351-10.199-14.051 0.57617-0.1875 5.55 9.1371 3.2125 8.0371 9.25-7.225-3.1375-8.1746 5.0254-0.59961 4.4629-0.2625 5.525-17.262-3.125-14.287 6.75 4.6125 4.45 12.075-3 17.475 0.9375 5.5-4.2375 19.687 6.7621 13.412-6.3379-16.188-3.825 7.7633-18.75-6.8242-22.5zm-1.0039 20.49c2.1515 0.31163-2.0844 5.0578-2.6328 0.66015 1.3008-0.56718 2.1363-0.73207 2.6328-0.66015zm-453.29 11.716c-0.72723-0.011-7.2058-1.2271-8.205-1.1583-0.0758 6.4558 19.113 1.3233 8.205 1.1583zm-27.332 2.6182c-4.675 9.6625 12.35 3.0625 0 0zm24.125 0.81055c-1.706-0.008-3.4148 0.10703-5.0742 0.21484-2.45 10.662 12.562 9.0742 13.312 1.4492-2.5625-1.2969-5.395-1.6508-8.2383-1.6641zm523.54 5.6016c-7.6375 6.925-28.774-4.0488-23.012 11.889 10.738 6.3 5.1746 20.038 4.1621 29.625 5.5875 2.6 0.36172 5.9988 1.2617 10.174 5.1125 2.05 5.5383-5.1746 8.6758-7.0996 5.625 0.2125 6.5246 14.163 13.35 8.6504 2.5-10.625-5.1863-22.725-1.5488-35.275-0.5625-7.2375 9.3488-16.463-2.8887-17.963zm20.766 0.625c-0.55076 0.0314-1.1613 0.16445-1.8398 0.41406-4.425 14.075 7.7629 37.487 2.2129 53.449-3.5875 0.25-3.4137-6.8133-7.7637-6.0508 1.375 6.8125 6.3 15.539 14.75 13.514-4.3-15.775-4.6004-32.439-2.2754-48.764-0.0906-3.7383 0.24011-12.866-5.084-12.562zm-63.746 4.709c-1.5053-0.003-2.9715 0.26953-4.1309 0.8164-6.2 5.8875 6.4238 13.863 11.486 6.7383 2.025-5.0531-2.8396-7.5465-7.3555-7.5547zm36.76 4.082c11.386-0.11836-11.808 10.3-4.7168 0.41015 1.9898-0.27187 3.5389-0.39791 4.7168-0.41015zm17.049 2.7715c-0.26289 0.001-0.53359 0.0301-0.81445 0.0879-2.15 6.525-1.9766 18.088 0.27344 25.4 8.2223 0.85977 8.6908-25.521 0.54101-25.488zm-531.94 0.25195c-0.45193-0.0172-0.90469-0.0148-1.3594 0.0117-7.85 4.475 9.1492 10.888 10.637 2.125-3.0188-0.90781-6.1138-2.0161-9.2773-2.1367zm482.39 4.9609c-12.525 3.9875 7.9746 10.088-6.7754 15.25 7.6875 4.6 18.963-15.65 6.7754-15.25zm31.324 1.2129c16.738 0.5875-10.975 8.9625 0 0zm-548.96 0.93c9.4 4.325 16.963 15.15 24.588 21.125-9.7625-3.75-18.675-12.838-24.588-21.125zm-16.82 2.8066c1.5598-0.0163 3.1582 0.0789 4.7949 0.29297 19.938 0.2375 42.626 24.975 39.301 44.25-10.65-7.9-21.489-19.888-36.764-20.5-10.688 1.2375 6.2125-19.026-3.75-13.389-10.1 14.375 4.3004 20.55 14.275 25.438-12.162 17.488 8.5371 25.2 21.975 30.812 1.2 7.2625-0.26172 14.789 0.86328 22.102 10.875-0.7125 16.688 13.299 27.676 15.512-0.6625 25.412 2.1734 51.188 6.5859 76.188-6.9625 1.9-9.6238-7.0008-12.986-11.551-8.7125-2.8625-17.462 22.601-25.562 10.326-1.8625-25.9 0.36133-57.538 0.29883-81.15-7.4625 27.675-3.8238 57.725-5.5488 87.025-6.75 2.55-7.1246-12.339-14.912-8.6387-8.4375 6.7875-19.538 6.45-29.5 3.9375 5.8375 11.162 24.512 7.4008 34.324 2.9258 12.388 14.5-0.35039 35.112 2.0371 52.387 6.2125 30.7-17.137 59.263-10.287 89.738-5.125-0.1-6.6754-8.1617-12.463-8.5117-8.575 7.225-19.024 20.862-31.361 12.512-8.975-2.025 6.7-13.612 4.5625-5.6367-1.5875 8.9625 9.6609 0.24844 11.898-3.1641-3.875-5.9625-13.762-2.5109-18.938-7.5859 5.8625-10.262 0.36406-25.126-0.96094-37.426 2.9125-21.462 0.6-44.312 12.25-63.625-0.7625-7.7-9.0383 2.025-10.051-3.375 7.6375-6.3125 22.15-5.2375 24.4-16.438-5.9625-8.7125-11.913-17.713-15.15-27.838 6.35-12.588 15.726-28.675 6.8008-43.562-0.6-7.6375-10.688-32.788 2.7617-25.275 2.9625-18.188 4.9879-3.1121 0.27539 5.4004-5.2125 0.4125-7.0254 7.8887-0.58789 7.4512 9.95-21.25 12.013-45.189 19.301-67.389 0.4375-1.9875 3.9734-6.7625-0.10156-6.4375-8.0875 14.788-6.5984 35.813-15.336 48.463-2.0375-15.238 11.023-36.574 10.648-50.637-6.9375 17.112-12.225 36.436-18.287 54.586-2.025-11.638 3.4133-25.024 5.3008-37.361-6.65 0.7-6.3121 12.162-7.7246 17.199-0.9625 24.112-5.8125 48.701 0.1875 72.451-2.4 5.4-9.0508 7.9867-13.301 12.074-0.9 6.2125 12.638-3.7246 10.738 4.2129-14.4 4.2375-30.739 6.25-43.289-3.9375-0.725-5.2 12.4-12.914 12.963-6.2637-19.238 1.5375 22.312 13.389 14.412 1.6387-8.962-3.87-22.799-6.42-24.949-17.32 12.525-26.05 19.675-54.539 22.9-83.264 2.2617-21.211 16.883-46.409 40.279-46.654zm564.57 6.1c18.088-0.2-8.775 10.338 0 0zm-18.6 1.6992c-6.95 5.375-13.975 11.1-19.975 17.5-3.05 9.3 15.537 11.301 12.6 1.3262-2.325-6.7 11.462-17.039 7.375-18.826zm-486.38 7.375c23.488 12.238 35.05 38.85 36.1 65.463 6.4625 10.188-7.6879 17.126-1.5879 26.363-7.4375 10.25-24.013-0.72617-23.463-11.514-22.838 3.0875-2.1613-26.675-10.424-36.588 17.45 1.6125 13.099 22.664 13.111 34.914 13.788 10.25 3.2125-13.901 8.0625-18.926-0.45 5.9875 6.1883 29.813 4.9258 10.113-2.2125-16.325 0.625 0.14961 6.1875 2.4121-2.75-10.225-0.0879-22.413-13.338-26.775-16.775 0.8625 10.775-18.612-4.375-17.6-3.325 22.55-3.3363-0.92617-1.2363-10.389-13.912-3.7 3.3234 22.488-8.1016 24.588-12.438-9.4625-28.649-33.388-5.8613-42.062zm-49.438 12.025c15.65 1.0625 23.2 14.9 34.35 23.412 3.8375 3.9 3.2746 10.263-0.71289 13.838-10.7-0.0875-13.599-16.737-24.361-12.1 1.0625-3.925 17.324-6.4746 1.8867-5.5371-13.038 1.8 5.6754-1.7887 4.5879-5.4512-7.975 2.5375-12.25-0.63672-3.625-2.1992 2.125-7-8.825-7.6754-12.125-11.963zm54.025 7.375c-2.0375 3.4375-3.35 12.6 0.9375 13.85 0.9125-4 4.075-12.175-0.9375-13.85zm501.36 7.7871c5.7875 7.1375 14.263 24-1.5742 27.525-6.5625 4.95-6.9758-8.8008-13.176-5.8633-0.6125 6.7875-1.0125 22.012 8.875 18.562 0.7625-15.05 21.226-15.911 32.451-19.861 8.85-3.975 10.761 4.7496 8.2363 10.6 7.2125-0.1 13.813-10.437 5.6758-14.762-8.1125-0.575-16.05 2.5992-24.162 2.1992 0.325-10.45-5.7387-18.263-16.326-18.4zm-518.44 4.6387c23.388 0.05-1.1121 24.999 6.7754 35.049 1.5375-3.825-0.60039-14.549 5.1621-14.699-1.3875 7.2-1.1121 16.237-5.4121 22.1-4.8625 0.9125-16.563-15.275-5.7129-8.7246-0.55-10.812 10.812-27.312-0.8125-33.725zm33.139 18.975c14.062 5.8625 2.2 12.262 0 0zm507.58 6.4297c-0.54689-0.0189-1.1695 0.0152-1.8711 0.10742-4.3375 3.325-8.7125 4.975-14.125 3.875-2.5125 7.7 6.4875 1.6867 10.5 2.3867 1.6375 6.9125-12.9 4.3258-8.0371 13.051 3.3875 4.95 16.613-1.8996 17.15 5.1504-4.475 8.4375-16.938 5.0625-22.051 9.125 5.075 15.912 27.277-16.425 27.227 3.4375 2.525 12.188-11.175 11.2-18.713 8.7754 7.5125 11.325 31.687 0.88633 24.287-13.826-3.8125-16.6 17.051 1.2508 21.113-8.5742-12.95-7.4125-28.413 3.0242-39.426-8.3633 3.668-2.7891 12.149-14.862 3.9453-15.145zm-510.83 8.3691c4.3875 14.438-6.9125 10.262 0 0zm-80.363 12.926c3.9375 16.238 1.6004 40.138 4.7129 58.65 0.175-17.65 6.3996-44.8-4.7129-58.65zm47.359 4.9902c-0.24925-0.002-0.51446 0.01-0.79688 0.0352-1.9875 22.225-2.8742 49.938-3.6367 74.275 0.5 7.1 9.7488-0.77617 6.5488-5.2012-7.1375-16.575 1.2875-34.25-0.625-51.475-1.5742-4.7953 6.2365-17.579-1.4902-17.635zm7.9531 3.498c-3.7625 19.212-2.05 42.573-2.4375 63.023 11.188 2.45-0.8125-10.924 2.9375-16.049-0.875-14.7 3.85-35.362-0.5-46.975zm-58.875 5.0117c-3.9875 2.5625-5.3125 7.5129-1.25 10.713 0.75 17.55-1.6258 41.25-0.42578 56.787 6.325-19.075 2.7383-49.125 1.6758-67.5zm217.65 10.338c20.338 2.7875-15.65 9.9629-20.225 14.588 1.7625-9.3125 11.687-13.763 20.225-14.588zm14.73 5.7832c10.595-0.22217 23.754 9.9922 17.082 19.891-22.412-5.175-44.488 0.17617-63.5 12.701-1.975-3.325-4.4871-9.1129-0.91211-11.963 13.9-7.7125 26.049-19.601 43.012-19.863 1.3438-0.48906 2.8047-0.73389 4.3184-0.76562zm257.95 2.2637c3.1547-0.0862-1.9664 6.3875-2.6836 0.83984 1.2324-0.58398 2.0994-0.82388 2.6836-0.83984zm1.4746 6.3184c2.1515 0.31163-2.0844 5.0578-2.6328 0.66015 1.3008-0.56718 2.1363-0.73207 2.6328-0.66015zm0.66602 4.209c8.6625 4.7375 14.338 15.801 14.713 25.676-7.025 1.3375-14.676 5.3004-21.863 3.4629-0.6375-9.775-0.83711-22.001 7.1504-29.139zm5.8496 0.21289c11.688 1.6875 35.939 19.899 13.701 23.012-4.2625-6.125-9.1512-16.062-13.701-23.012zm-10.924 1.0508c-6.8875 4.95 2.2242 37.711-16.926 26.711-0.7125-10.5 7.7758-21.511 16.926-26.711zm-257.48 6.0215c6.2111 0.0871 12.412 1.209 17.783 3.3027 5.125 1.4125 3.9 8.4383 4.1875 12.301-4.8625 0.6-16.873-0.32656-4.0234 2.4609 6.0375 3.725-4.3012 3.4125-7.8887 3.1875-1.0875 6.15 4.3754 5.0262 8.3379 3.7637-3.9125 14.4-18.312 25.762-33.5 19.875 0.175 6.125 11.575-0.925 11.15 5.0625-14.575 4.5125-30.738-6.5504-34.176-20.9-3.1 8.45 4.9508 15.563 10.488 21.051-9.475 8.3875-18.476-10.612-27.301-5.375 11.488 4.4125 20.413 13.174 26.113 24.012-6.4625-3.5375-10.912-11.45-18.562-12.338 3.95 8.75 18.05 11.501 22.15 21.238-12.088-0.1375-23.812 15.4-15.625 25.838 12.025 5.0375 21.174-8.1 32.736-8.1875 2.9125 10.4 14.851 5.0859 7.0137 16.523-1.575 6.8-1.2-11.774-3.75-3.1992-2.2375 11.075-16.25 15.15-24.213 7.5625 1.625-2.1125 6.8875-4.9871 7.125-0.53711 4.9625 1.525 8.1504-7.1258 8.0254-11.426-4.575-1-5.2012 11.376-10.014 4.7637-12.825 11.775-25.425-4.1125-36.625-9.6875-11.862-7.725-12.925-27.976-25.812-32.613 3.3375 8.5375 11.075 16.875 13.35 27.35-7.7875 0.775-7.0871-19.249-15.6-13.549 4.8375 11.8 17.375 21.788 28.312 28.188-11.362 6.85-23.225 17.936-37.5 15.549-8.575-1.3375 3.5387-16.012-8.4863-11.574-11.888 1.0875-8.5637-18.013-6.5762-25.113 15.638-20.812 23.725-54.225 53.65-57.812 8.8375 0.9625 20.425-7.8367 27 1.4258 4.8-2.0375 1.1008-9.6746-3.9492-6.1621-11.012-1.15-1.2641-20.664 3.7734-9.8516 5.0273-10.502 18.74-15.318 32.404-15.127zm-32.404 15.127c-14.6-2.7125 2.325 15.912 0 0zm360.08-12.375c4.7875 7.1875 6.1492 25.813 4.6992 37.525-1.925 7.075 5.9871 26.014-8.8379 20.701 2.1-19.312-1.7113-39.564 4.1387-58.227zm-337.12 10.363c-15.5 5.7 18.438 0.4625 0 0zm307.05 1.3496c1.6875-0.225 3.2383 6.2762 0.11328 6.2012-15.412 4.325-32.138 10.612-47.963 7.9492 13.5-4.3875 33.012-6.6254 47.85-14.15zm-545.02 0.63867c5.8875 0.6375-4.25 4.6125 0 0zm244.27 3.0078c-1.1656-0.00038-2.7773 0.35937-4.9199 1.2422-4.6875 0.0375-8.025 3.0613-1.8125 4.3613 6.3176 4.8832 13.027-5.6015 6.7324-5.6035zm-249.21 0.2539c1.6625 1.9125-10.101 3.8242-13.014 4.3867 2.7375-3.8 8.6887-3.9242 13.014-4.3867zm13.398 0.51172c-9.0125 15.788 11.025 7.8375 0 0zm480.28 4.9727c2.774-0.0294 4.9645 3.0281 7.1738 4.5156-2.5875 3.1125-13.763-0.37578-8.4004-4.3008 0.42188-0.14375 0.83027-0.21064 1.2266-0.21484zm-524.69 0.30273c-1.6 4.2875-0.76289 17.163-1.7754 24.525 6.4125 0.1 0-12.588 6.375-13.713 1.2125 5.8 0.51289 12.001 2.6504 17.613 20.188 0.9625-10.738-14.201 5.5996-18.676 3.175 12.612 4.8883 2.025 3.1133-4.5-17.725-0.9-5.0746-3.7492 4.9629-4.3867 2.375 10.825 0.325 22.536 2.0625 33.674-20.612 10.125-47.826-21.525-22.988-34.537zm581.39 2.0312c2.4527-0.0101-0.0191 2.973-3.0762 4.1816 1.75 6.6625 8.0121-5.8121 11.1-0.28711 2.5375 5.8875 0.35078 12-3.7617 16.375 3.425 7.125 7.2867 14.063 13.949 18.65-10.762 7.05-21.462 16.387-34.824 17.512 1.275-5.825 12.688-3.6625 14.463-10.312-4.6 0.5125-7.2012 5.4879-12.014 5.5254 3.45-4.275 10.413-6.2137 11.088-12.576-12.525 17.538-45.812 18.301-49.188-6.2988-5.9375-8.2125 5.2133-4.1 7.4258-5-7.35 20.3 30.987 6.7492 10.574-0.30078 10.862 8.2-15.55 11.675-7.6875-0.9375-3.0125-1.95-26.474-7.7867-8.2988-7.9492 8.2375-4.175-15.589-0.63789-8.5137-10.463 18.938 1.175 38.55 0.23828 56.225-7.5742 1.1438-0.37968 1.973-0.54258 2.5391-0.54492zm-275.54 0.38086c26.512 4.4625 28.588 36.575 46.375 52.062 10.075 8.2375-19.338 19.164-0.5 13.701-5.9 15.475-32.325 20.349-41.5 10.986-16.962 12.75-21.211-10.937-16.861-23.162-5.4375 2.725-3.2996 34.489-5.5371 15.264-19.862 10.725 9.1-22.214-10.562-19.451 11.675-4.6 25.061 1.1133 18.486 16.676 2.075 11.538 1.0887-9.3012 6.2012-7.2012 0.075 4.525-0.625 9.4758 1.625 13.676 10.1-12.75-15.677-28.4 8.0859-22.875 9.9375 0.7875 4.3887 18.475 14.014 20.1-4.0625-5.525-0.83789-15.724 2.5996-3.7363 8.475 10.512-6.4508-11.264 6.8242-7.9766-1.625-13.138-17.623-13.861-27.711-10.799 6.975-10.325 27.337-7.8129 34.537 2.1621-3.325-13.162-23.313-16.088-33.463-8.1758-7.7 7.85-19.012 3.0875-28.688 3.125-5.775-8.9875 9.6754-9.5121 1.4629-16.225 6.1125-10.65 19.399-16.3 24.611-28.15zm-273.88 0.26367c3.875 3.7375 6.9258 12.949 8.5508 19.486-8.9125 0.45-6.6133-13.399-8.5508-19.486zm-6.3223 4.6504c0.8221 5.8779 11.125 25.597 0.50977 22.986-0.5208-7.6463-0.80874-15.326-0.50977-22.986zm256.66 0.0742c-4.725 3.2625 6.1758 5.3621 9.1133 4.2246 2.575-5.4-5.8008-3.9746-9.1133-4.2246zm303.57 1.2402c-0.2996-0.02-0.6336 0.002-1.0039 0.0723-5.5625 0.7125-4.0879 6.4633-1.4629 9.6133 3.7383 0.42188 6.9607-9.3851 2.4668-9.6855zm-467.15 0.16015c5.975-0.5 9.5758 7.6613 7.4883 12.924 5.8875 37.4-12.112 71.75-22.6 106.46 9.45-0.8625 8.6742 22.514-2.3008 16.139-7.4125-1.2-22.211 17.148-24.236 3.0234 22.512-18.25 31.525-53.974 31.312-80.111-5.1875 25.662-9.7266 62.262-34.977 77.475 11.1-37.475 15.7-75.5 16.213-114.69 10.45-3.8 20.287-12.85 29.1-21.225zm158.48 3.2754c0.9375 3.8 6.2121 8.8984 10.1 4.2109 7.2875-4.85-7.9371-3.2484-10.1-4.2109zm276.2 3.125c-16.55 7.3125 20.425 3 0 0zm-246.47 4.6621c0.65 5.025-0.76211 15.449 4.9629 16.074-2.4125-4.7125 2.0496-16.299-4.9629-16.074zm6.2754 1.0996c2.3 4.375-1.9141 14.151 3.8359 16.301-4.225-4.4625 4.2641-15.988-3.8359-16.301zm239.57 1.1152c-4.967-0.10288-8.1352 5.1137-1.9336 6.1855 4.8375 4.425 13.263-8.4891 4.1504-5.7891-0.76094-0.25937-1.5072-0.38179-2.2168-0.39648zm41.541 1.709c3.0125 1.0625 3.3133 6.9258 4.9883 9.9883-4.6-0.7625-4.4383-6.3758-4.9883-9.9883zm-292.15 1.25c-3.325 2.7625 2.2504 11.126 5.8379 12.451-3.025-3.4125-1.3504-12.026-5.8379-12.451zm-195.96 0.0254c-8.675 9.825-10.763 27.989-9.2383 40.889 1.8875-11.838 6.3758-30.889 9.2383-40.889zm152.46 2.4258c11.938 1.2 20.35 5.4625 19.088 19.438-5.95 0.7875-9.725 7.8879-16.375 4.7754-1.525-8.275-16.663-19.5-2.7129-24.213zm60.926 0.83789c-5.1 9.075 7.725 5.1875 0 0zm-225.4 2.668c-0.22878-0.002-0.46602 0.0242-0.71289 0.082-6.3625 16.788-5.4859 37.124-3.0234 53.549 2.4875-15.6-1.4641-36.013 7.6484-51.213-1.1266-1.0609-2.3106-2.4074-3.9121-2.418zm456.38 11.469c-2.7375 2.0875-13.275-2.4621-12.15 3.4004 4.9875 1.2375 23.813-0.0129 12.15-3.4004zm52.988 1.5996c1.5375 0.55 14.362 0.76289 7.75 3.7754-18.975 2.6875-31.562 24.112-52.35 17.512-7.1875 0.0875-0.50156-8.2734 4.3984-4.3984 15.975 1.225 25.826-13.901 40.201-16.889zm-278.79 0.53125c-0.45835-0.0161-0.89062 0.0102-1.2891 0.082 2.6125 4.325 11.789 4.4867 12.977 12.074 7.9219-2.332-4.8122-11.915-11.688-12.156zm221.22 2.7188c-3.9625 7.875 13.762 0.15 0 0zm-518.8 2.6504c6.275 0.4625-3.025 10.962 0 0zm581.55 1.5371c17 7.4625 38.437 21.188 45.949 40.551 3.35 40.9 0.56211 82.524 12.287 122.45-8.1-0.9625-4.8625-16.224-12.312-17.174-2.6125 4.8125-1.6 11.499-5.4375 15.949-9.4-1.975 0.47656-39.675-11.648-24.162-4.1375 9.2125 0.87461 21.438 2.3496 31.463 7.4375 3-4.3629-15.425 1.8496-14.463 1.7125 6.4 2.5875 13.05 3.75 19.6-9.025 6.0625-18.025-2.0129-26.662-4.5254-6.65-25.462 22.287-34.887 30.037-55.074-0.0875-23.35 1.5242-50.15-4.5508-71.338-1.8 21.5 4.3262 48.375 0.70117 71.625-5.2625 11.412-17.9 20.825-29.975 23.037-11.8-15.375-16.002-35.35-18.852-54.15-4.1625-1.275-8.575 0.33828-12.75 0.80078 4.95-20.112 33.501-19.95 33.676-42.15-6.9125 2.3625-10.849 11.763-19.012 12.363-3.7 10.675 9.0859-2.0375 11.273 0.75-9.0875 9.075-24.074 13.063-30.861 25.463-3.5125 2.65-1.5129 11.225-7.7129 9.5 1.8625-23.775 11.7-46.538 9.7246-70.875-11.588-2.0625-2.1129 11.248-2.9004 17.211-4.175 21.512-6.7988 48.088-10.361 66.25 6.925 0.0125 12.449 5.2883 19.449 5.0508 1.0875-6.45-20.188-8.4883-3.1875-7.8633 12.188-1.1625-5.8992-3.0109-9.2617-4.5234 6-1.875 12.112-4.4016 18.438-4.7266 4 19.062 8.8004 40.138 23.775 53.775-2.425 8.825-15.064-2.4246-11.289-8.7871-11.838 5.2-34.386 15.013-39.711-0.38672-4.3 0.6625-3.0391 8.0992-7.5391 8.8242-10.725 1.0875 0.0879-18.575-8.4121-19.838-0.675 6 4.2887 15.163-3.3613 18.275-4.9125 5.425-10.814-8.6883-1.3516-4.1133 5.3-6.2-1.0613-16.586-8.7363-17.273-2.3625-8.275 16.449 2.525 10.799-4.625-3.85-4.2875 3.7004-2.975 6.5879-1.875 8.775 2.3125-0.61133 18.924 7.1387 20.549-0.725-8.625 1.4738-19.325-7.7012-23.775 6.8375-8.175 18.376-3.1625 26.326 0.4375-5.1-8.4875-20.264-10.948-26.977-2.4609-2.125 3.35-8.2871 2.5488-5.7871-3.5137-1.125-20.488-27.036-26.488-43.174-20.775-3.3 2.4875-14.514 16.512-12.264 3.0625 5.7125-18.1-5.4238-45.662 19.076-47.387 10.375 9.075-3.125 25.249 4.625 35.699 9.225-1.9-5.6012-15.586 3.4863-19.799 11.112 3.1-4.1613 23.024 8.2637 21.887 1.0625-8.6-4.5512-17.487-0.76367-25.912 6.3375 6.2625-0.59922 26.137 9.8008 27.475-2.2-12.05-4.8758-24.712-8.1758-36.699-8.525-3.3-2.7754 4.1-1.6504 8.25-3.7375-0.3-10.086-1.5254-6.2988-7.7129-4.5625-14.525 19.65 1.8379 16.713-11.912 1.575-11.175 11.849-22.363 23.674-15.926 10.775 0.1375-1.2613 16.287-4.6113 6.9746-10.388-1.0375-1.7512 11.388-4.3262 15.988-5.1625 8.6125 0.95078-13.338-7.3242-8.3379 2.5625 21.838-4.6746 44.738 3.7754 65.75 0.8875-21.75 7.4242-44.075 10.824-64.688 11.525-17.638 34.025-21.075 50.588-32.188zm-281.54 0.7793c4.1118-0.36305-0.81836 5.3848-0.94727 0.1582 0.35859-0.0836 0.67314-0.134 0.94727-0.1582zm-6.5352 1.1094c10.788 1.075 2.65 9.375 0 0zm-45.244 0.24024c4.7696 0.0836 9.0039 1.4258 5.8945 7.5586-4.7375 8.0125-15.175 8.9629-23.25 12.088 2.8875-3.7125 2.95-10.488-2.3125-2.375-11.912 11.212 9.2762-11.888-1.4863-6.7129-4.8375 2.825-3.775 11.812-9.5 12.662 2.7-8.15 11.887-21.474-0.36328-10.986 1.6125-11.262 15.012-9.4996 23.324-11.787 1.7766-0.0937 4.8316-0.49743 7.6934-0.44726zm331.68 12.408c0.025 18.238-13.65 30.789-17.6 47.164 10.725-9.6875 21.575-33.502 17.6-47.164zm-410.85 4.7266c1.875 6.15 9.4887 8.8363 13.201 13.924-2.15 6.35-14.45 3.4625-13.525 11 6.7125-0.7875 15.625-4.6371 17.062-12.037-6.675-2.6625-9.2758-12.474-16.738-12.887zm-100.4 0.36133c0.9875 17.125-3.4609 33.125-7.5859 49.537 8.075-10.95 14.823-37.037 7.5859-49.537zm352.96 2.25c3.5125 7.3-9.6 5.275 0 0zm-27.338 7.8184c6.7968 0.021 15.961 3.357 7.8887 9.832 1.25-8.325-18.712-6.7867-10.6-9.6367 0.81719-0.13281 1.74-0.19831 2.7109-0.19531zm-135.25 1.3066c5.425 4.8375-7.5 13.125 0 0zm6.043 1.0566c11.791-0.29095-8.3625 11.96-1.2422 0.0684 0.44883-0.0367 0.86183-0.059 1.2422-0.0684zm-202.75 2.6055c-0.0875 16.125-9.0883 31.139-10.613 46.727 4.075 6.575 4.5871-6.9629 5.7246-9.2754 1.175-11.85 11.089-28.089 4.8887-37.451zm138.58 0.24219c8.5776 0.15779 14.543 7.6484 24.035 6.5586 9.4 14.712 2.275 34.713 7.0625 51.275-13.425 5.9625-29.812-2.2121-44.438 0.27539 3.675-14.1 12.55-27.488 18.725-40.938-16.362 12.55-13.225 49.325-40.85 41.037-7.2625 1.125-4.0742 11.212-5.7617 16.188-10.988 5.0625-29.014-28.026-10.076-24.701-11.95 8.5125 8.4637 9.675 5.5137-0.375-22.75-2.0375-20.325-28.436-7.625-40.861 4.925 0.9875-1.6629 10.8 5.0996 12.188 19.212 9.1125 31.875-12.589 46.562-20.576 0.59688-0.0594 1.1801-0.0808 1.752-0.0703zm209.85 3.2051c7.8252-0.37876 7.4551 12.062 14.721 14.066-0.525 12.538-12.262 15.711-20.074 6.2988-3.825-9.7 8.6633 6.1766 9.0508-0.96094-8.0875-3.025-7.4004-13.789-17.213-14.352-6.9375-7.1375 7.6746 0.56367 11.6 1.0137 6.625 0.5-5.3617-4.525 0.23828-5.8125 0.59922-0.14609 1.156-0.22865 1.6777-0.2539zm-204.67 0.32812c-8.95 5.8625-19.65 8.5875-23.662 19.875 5.4125-2.675 8.7488-8.0121 13.736-11.287-5.3875 9.5-13.036 17.963-16.361 28.551 9.325-10.862 18.7-24.426 26.287-37.139zm184.91 2.61c2.475 1.4 6.3625 4.0613 7.4375 7.1113-3.05-0.65-11.05-3.8238-7.4375-7.1113zm-176.03 2.2617c-9.425 13.675-17.1 29.688-21.475 45.863 9.1625-9.0375 10.912-28.139 21.475-38.352 1.6625-2.6625 5.6125-7.3867 0-7.5117zm22.799 2.2559c2.8684-0.0904 1.6402 3.8195-1.6738 4.082 0.9125 13.812 3.7262 31.712-0.11133 43.324 1.375-13.612-5.4512-34.487 0.29883-47.1 0.58281-0.19844 1.0766-0.29372 1.4863-0.30664zm190.59 0.20313c16.014-0.0217 11.971 19.967 7.5996 29.654 8.7625-3.55 3.1113-22.088 12.361-25.875 9.6625 6.475-3.2617 20.725 0.23828 27.375 8.5875-3.5125 0.67539-27.214 13.838-28.326-0.2125 16.112-2.2496 32.187-4.2871 48.162-10.575 4.0625-10.277-8.725-13.539-14.25-4.975 1.3-7.6738 11.389-13.986 11.264-1.3-10.938 2.9129-21.15 4.2129-31.775-11.45 2.7375 1.9 48.675-15.812 26.963-2.1625-12.612 7.0371-27.376 14.475-38.301-0.625-4.0875-9.4004 0.81328-6.7129-4.8242 0.55898-0.0434 1.0967-0.0657 1.6133-0.0664zm-40.312 0.0781c15.488 3.4375 5.2125 9.475 0 0zm-237.53 2.3008c6.1125 5.25 14.175 3.1879 21.537 2.6504-3.8125 3.8-19.075 6.8371-21.537-2.6504zm111.19 3.1875c-4.6625 5.6-6 14.937-9.4375 19.725-0.525 11.05 11.9-20.275 9.4375-19.725zm-117.99 0.6875c-4.975 8.95 11.013 19.999 17.113 18.762-7.7375-4.3375-13.926-12.474-17.113-18.762zm374.85 3.7871c5.523 0.39785-0.0357 12.219 0.7793 17.502-1.3138-4.9904-1.5768-10.817-0.7793-17.502zm-62.5 2.6504c0.375 10.838-1.3863 22.362-4.4863 31.75 7.4-0.65 10.224-29.312 4.4863-31.75zm-40.799 9.7871c6.65-0.175 3.2875 19.662-4.625 17.887 0.1125-6.1375 0.6375-12.887 4.625-17.887zm73.35 18.434c15.361 0.2842 27.734 12.998 27.188 28.891-12.625 3.825-5.2121-10.774-14.537-10.137 0.925 5.2 2.5992 10.263 3.1367 15.551-9.4 0.2875-0.77539-18.014-10.713-18.951-3.875 4.15 7.9875 17.525-0.9375 19.375-13.038-1.525-24.849 3.6637-36.762 5.0137-3.7-17.688 11.624-32.089 25.887-39.076 2.2875-0.49375 4.5438-0.70661 6.7383-0.66601zm-473.5 0.40429c-4.625 4.825 15.537 7.3625 16.725 6.5-4.65-2.4125-11.262-5.375-16.725-6.5zm-6.707 2.4336c-0.31693-0.0194-0.64062-0.0188-0.96875 0.004-2.3375 8 12.877 5.6246 14.477 5.2871-5.168-0.26953-8.7539-4.9995-13.508-5.291zm61.758 7.4531c11.088 3.7-9.2625 7.6375 0 0zm159.03 1.0195c17.65 0.14942 35.29 1.1613 52.896 0.20508-15.362 6.075-42.624 0.45039-62.387 2.5254-0.4125 0.2-15.025 1.1512-8.1621-2.4863 5.8844-0.24687 11.769-0.29394 17.652-0.24414zm-32.32 0.50782c1.4456-0.008 2.8555 0.23945 4.1914 1.1113-7.8625 4.5375-22.212-1.5762-28.6 3.2988 30.225 12.288 59.45 26.826 88.475 41.639-7.0375-7.9625-19.173-9.6766-27.273-16.664 6.2375-16.062 19.737-2.3 34.699-0.9375 6.0375 7.425-24.863-1.3492-14.65 8.4883 3.5375 6.45 21.339-2.3617 16.701 3.5508-19.988 3.325 11.187-2.7641 6.0117 4.7109-7.15-0.15-15.225 6.05-21.625 0.625-29.45-15.4-60.4-27.824-90.062-42.799 4.225-5.6625 17.55-0.38789 24.812-2.5879 2.4062 0.29688 4.911-0.42236 7.3203-0.43554zm66.955 4.0976c16.638 0.6 34.436-1.4871 49.549 7.0879-4.6875 13.3-44.749-3.475-34.262 8.3125-11.738 3.15-23.775 1.8629-34.463-4.6621-4.6-0.9-2.5613-10.801 3.8887-5.3008 16.525 1.725 34.011-2.2004 49.736 4.0996-7.6875-8.5375-24.112-3.7367-34.85-5.7617-8.7125 1.0875-25.551-5.0375-26.238 7.9375-5.425-7.325-17.962-4.7879-22.438-10.088 14.112-3.2875 33.039 0.725 49.076-1.625zm-61.787 0.73047c3.7625 0.10156 7.2559 0.80156 8.9121 3.3828-5.5875 0.8875-8.5254 9.7754-14.463 4.8379-3.825-3.2375-20.037-7.7887-4.9746-8.0137 2.7312 0.1875 6.7629-0.30859 10.525-0.20703zm-144.76 1.9316c9.65 0.6375 19.362 2.8016 29.037 1.8516-5.3875 5.975-24.362 4.6109-29.037-1.8516zm-20.732 1.4238c12.344-0.31779-10.104 9.3777-5.0176 0.45117 2.0906-0.27891 3.7406-0.4183 5.0176-0.45117zm362.54 0.3418c19.336-0.088 34.841 15.876 52.932 21.336 10.975 3.0125-7.5762 13.861-0.88867 19.611 4.5625 2.4375 10.139-11.675 7.7891-1.9746-5.375 8.5625 3.3871 16.563 11.975 12.238 8.325-0.0125 7.9375-16.05 16.625-12.775 25.688 12.1 51.688 23.425 77.838 34.438 4.45 0.7875 4.3746 8.3629-2.7129 4.9004-40.662 4.8625-81.088 11.811-121.86 15.674-6.0875 1.7125-11.45-1.6863-16.375-4.6113-46.938-24.912-97.925-46.302-140.71-76.414 36.425-3.725 72.726-8.9121 109.26-11.85 2.0894-0.38203 4.1305-0.56316 6.1309-0.57226zm-345.6 0.043c3.5038 0.26831-0.52656 5.248-1.9922 0.21679 0.8375-0.19687 1.4916-0.25513 1.9922-0.21679zm111.1 2.8047c32.6 8.45 62.649 25.938 92.824 41.062 1.4625 1.9375 3.2883 13.813-3.1367 10.275-28.425-14.3-57.438-27.401-85.713-42.051-4.6125-0.8625-3.6996-5.8621-3.9746-9.2871zm52.414 0.85547c7.7176 0.0396 15.28 3.0422 20.398 9.1562-2.725 13.838-39.413-4.1734-25.738-8.7109 1.7695-0.30468 3.5589-0.45445 5.3398-0.44531zm36.611 1.1445c0.0625 4.5375 7.2625 4.525 10.875 5.0625-0.05-4.5-7.4-3.9-10.875-5.0625zm-205.18 0.0371c4.4 1.9625 15.449-2.1371 16.199 3.7129-4.9125-2.7875-15.862 3.4121-16.199-3.7129zm-24.863 0.375c10.613 5.675 24.789-2.4242 24.352 11.801-10.825 2.6875-18.613-11.763-28.176-7.5508-0.4125-2.5625 1.5492-3.875 3.8242-4.25zm122.26 1.25c5.5625 1.0875 14.9-1.9371 14.787 6.2129 31.4 13.325 61.75 29.35 92.4 44.088 6.4125 6.5875 25.399-7.0762 23.049 6.8613 4.95 16.588-16.986 7.0383-23.773 16.551-1.05 7.2875 15.087 0.0121 4.0371 0.66211-0.14517-6.3764 16.141-3.7337 10.227-0.6914 10.521-3.0924 9.3948 4.6659 8.2363 15.654-10.062-1.4125-17.688-10.013-27.463-11.988-15.262 3.1625-31.012 2.3379-46.375 4.3379-4.525 0.9-7.0508 6.4246-2.1758 8.9121 27.888 13.388 54.101 30.189 82.639 42.264 2.25 0.5875 5.0117 4.0379 0.94922 4.0254-2.3625 0.25-13.151 6.9738-13.801 1.4863 4.5375-0.9375 9.1758-1.1863 13.801-1.4863-5.8-4.8375-24.024-0.43867-12.824 6.7363-4.3125-2.575-22.076 0.16289-15.014-12.537-6.7 1.8375-13.987 2.5117-19.887 6.4492 7.1125-0.6 15.774 6.0766 17.236 11.789-10.288 1.725-20.836 9.0238-31.023 6.9238 8.3375-3.1375 16.975-5.5504 25-9.4629-2.5125-3.525-9.7762 4.0891-12.139 0.72656 10.51-3.6178-3.3756-11.363-8.4082-14.5 11.196 8.4861 6.9614 22.109-8.166 22.861 10.625 13.962 28.625-10.488 41.412-2.5879-1.7375-6.875-10.349-9.8996-12.262-16.1 8.35 1.1625 12.612 10.875 19.062 15.375-2.1125-5.875 7.0359-3.2129 7.7734-6.4629-4.0625-9.5125 16.852-0.79922 13.102-10.387 24.5 11.725 49.686 22.3 73.461 35.4-2.3125 7.35-16.788 3.5121-19.562 9.9746 8.55-0.1125 16.526-3.6008 24.863-5.0508-1.525 8-18.225 1.3637-18.938 9.8262 7.45-3.525 33.038-0.95039 20.275-11.65 15.75 5 28.963 16.938 45.4 19.625 15.25-2.975 30.999-3.0992 46.174-6.3242 4.2625-8.9875-5.4992-12.651-11.699-15.738-55.912-25.9-112.59-50.5-166.95-79.5-1-1.3625-0.6875-3.1621-0.6875-4.7246 48.262 21.562 95.562 47.987 144.56 69.1 42.412 0.4125 83.989-11.337 126.2-14.074 30.625 15.125 61.925 28.95 93.812 41.25 22.975-1.2375 46.224-10.201 69.262-9.4883 54.05 30.825 109.4 60.075 166.3 86.588-66.312 18.612-136.51 18.386-203.15 37.236-50.088 3.5-98.363 20.401-147.8 24.639-78.3-27.912-149.31-72.813-224.17-108.34 7.0875-12.125 18.274-4.8004 26.049 2.5371 6.65-6.45-5.2621-11.988-10.537-14.15 1.5625-10.675-7.7371 4.2141-13.225 4.0391 1.1875-5.575 9.425-7.3758 10.812-12.426-8.625 1.725-14.224 11.125-20.699 16.225-76.338-37.95-151.55-77.874-227.9-115.67-40.938-17.725-77.387-44.076-118.5-61.451-7.8375-1.4875-19.188-16.362-7.6875-18.688 26.688 0.3 53.649-2.7246 79.861-6.0371 9.15 4.8875 35.488 16.038 33.313-2.8242 30.3-1.1625 60.514-4.7137 90.764-6.0137zm79.479 133.01c-0.52552-0.39831-1.072-0.79026-1.666-1.1641 0.19766 0.22589 0.83869 0.64837 1.666 1.1641zm41.248-59.33c-0.94471 0.27766-1.9741 0.63349-3.1152 1.0918 1.405-0.35991 2.4092-0.72863 3.1152-1.0918zm270.72-73.133c2.8625 7.0875-1.1488 19.686 6.2012 22.986-4.1125-6.9625 1.6988-20.136-6.2012-22.986zm-130.07 4.0859c-0.6026 0.0107-1.3086 0.052-2.1328 0.12695-3.3398 6.1524 11.172-0.28694 2.1328-0.12695zm-157.52 0.92578c16.238-0.0625 8.9875 7.6375 0 0zm93.568 1.3262c-0.30197 0.001-0.58399 0.0363-0.8418 0.11133 12.5 8.4625-10.063 3.8879-10.838 6.9629 11 10.388-14.663-4.6996-5.6504 4.2754 13.338 10.288 10.762-8.3508 23.387-4.3008 7.2891 0.66797-1.5272-7.0679-6.0566-7.0488zm-66.068 1.6113c20.075 5.7625 35.375 20.901 54.062 29.576 31.4 15.925 62.551 32.4 93.613 49 3.65 1.3625 2.6617 7.0496-1.3008 3.7871-48.225-27.875-102.34-49.938-146.38-82.363zm118.64 0.23828c-0.4875 9.475 19.925 12.1 26.438 5.8125-0.7125-11.975-19.262 0.1-26.438-5.8125zm105.51 0.6211c7.6713-0.25994 16.002 3.8426 12.895 13.217-13.925 6.575-35.264-1.1379-41.727 17.475-8.425 0.175 9.4625-13.162 6.4375-16.162-8.9625 1.8-7.2988 15.987-15.361 18.225 1.5875-8.45 7.1004-15.4 11.025-22.463-8.825 1.175-9.3012 13.9-13.701 18.35-0.175-7.425 4.8371-13.461 7.2871-19.674-8.3875-0.2625-10.624 8.9625-15.674 12.875 4.7875-20.275 26.924-20.489 43.762-20.977 1.5516-0.51328 3.2863-0.80525 5.0566-0.86523zm-233.02 0.0508c3.3313-0.0362-2.2215 6.382-2.0137 0.46484 0.88125-0.32344 1.5378-0.45967 2.0137-0.46484zm145.83 2.2305c2.2831-0.004 4.2976 0.35273 5.5586 1.623-4.0375 1.1375-16.601 4.7234-16.988-1.1641 3.0703 0.55469 7.6245-0.45215 11.43-0.45898zm-22.992 1.4726c3.125 8.25 9.4 0.55 0 0zm231.5 0.0371c-0.41942 0.0147-0.88828 0.075-1.4102 0.1875 0.5625 4.6875 0.33789 12.638 3.4004 14.676-0.39844-4.8281 4.301-15.083-1.9902-14.863zm-275.37 1.8242c-5.1375 7.6125 10.025 2 0 0zm-201.76 1.5879c-34.912 8.5625-70.775 10.514-106.21 15.076-5.5375 0.7625-12.024 2.6488-14.699 7.9863 3.1375 3.9375 8.7625 4.6996 13 7.1621 4.6375 7.8875-13.576-5.6375-9.6387 1.9375 12.188 5.1 24.263 10.926 36.963 14.576 38.85-6.7125 78.112-12.063 117.1-18.676 4.175-0.3 16.039-4.125 9.7637-9.5625-17.475-0.8375-30.988-15.088-46.275-18.5zm125.81 1.084c3.4121 0.0149 6.1141 0.69843 6.9297 3.1406-6.25-3.4125-22.875 6.4262-24.438-2.6738 4.1641 1.3438 11.821-0.49157 17.508-0.46679zm11.219 2.166c37.438 19.85 75.223 42.65 113.65 62.062 13.438 6.7875 26.412 17.088 42.062 17.301 40.212-4.7375 80.112-9.8629 120.25-14.4-4.1875 16.712 3.4504 38.063-6.7246 52.301-41.038 7.175-82.963 11.836-124.34 17.273-5.05-14.712 6.0254-39.461-1.5996-53.461-2.1875 14.8-0.75 34.275-2.375 50.938-29.512-10.925-57.387-26.838-86.262-39.676-18.738-11.988-42.413-15.825-57.238-33.375 0.275-19.1-0.89883-41.225 2.5762-58.963zm-138.78 0.96094c12.886 0.01 25.201 9.7828 35.832 13.852-36.075 6.9375-75.999 12.651-113.45 18.488-11.35-2.6875-20.238-9.4258-31.676-11.988-2.55 0.4125-3.1246-3.7121-0.34961-3.5371 34.725-5.2125 69.5-10.026 104.09-16.176 1.8609-0.44219 3.7138-0.64006 5.5547-0.63867zm468.52 4.002c8.7625 6.2875-4.85 22.162 0 0zm-459.81 0.52539c4.5 9-12.088-0.53789-7.7129 8.3496-2.45-0.975-4.6609-3.1129-7.4609-2.7129-0.15 13.775 19.336 0.51211 26.111 0.0371-4.25-0.725-8.1125-2.3238-10.938-5.6738zm270.1 0.67188c-1.0715-0.01-2.1375 0.0645-3.1875 0.22851-2.8 4.2875-5.8 9.275-11.938 9.875 5.2625 5.0125 1.5766 4.9875-4.7734 3.6875-3.05 10.388-9.375-9.1137-12.812 0.86133 4.475 4.2125 28.724 15.187 16.324 3.7246 8.275-5.925 18.562 12.438 24.725 4.4004 6.975-0.225 19.613 10.176 20.176-2.8242-9.75 7.85-23.088-1.4121-34.125-1.5371 0.2625-6.7125 14.524 3.4109 12.174-4.1641-0.7875-7.0375 13.851 1.2879 10.201 2.9004-8.525 0.8625 6.3504 7.1133 5.4004 0.42578-4.15-9.025-20.1-11.538-26.625-3.9258-8.1625 1.075-2.2758-7.0875 2.6992-6.3125 1.6875-8.375 15.175 0.25039 21.475 2.6504-4.4406-5.775-12.212-9.9227-19.713-9.9902zm-291.06 0.40234c-7.3625 1.1625-14.675 2.7125-21.938 4.375 8.375 3.05 19.888 8.8375 2.5879 8.375 10.45 8.6125 22.55-4.025 19.35-12.75zm374.48 1.498c5.1063-0.45083 7.9723 5.6078 6.2441 10.289-5.05 1.025-11.238-4.0988-8.5625-9.6738 0.81406-0.35312 1.5889-0.55083 2.3184-0.61523zm97.432 0.22656c2.6375 7.925-1.0266 20.025 5.2109 25.525-4.175-7.35 3.8641-22.913-5.2109-25.525zm-33.076 0.625c8.3625 2.9625-14.337 20.664-7.0996 28.139 5.6125-3.025 2.875-14.85 10.375-17.225-2.075 7.475-12.063 19.425 0.13672 22.188 11.475 4.6625 3.0883-12.513 9.6133-17.426-7.1625-7.8625-4.1379 13.338-13.775 12.588 3.675-6.65 6.5512-24.45 17.264-17.35-1.675 11.338 2.2859 22.173 6.2734 32.211-6.2375 1.55-11.3 6.85-17.975 6.4375 4.7875-24.45-47.55-14.849-34.025-40.924 5.2-3.25 13.689-7.3875 21.951-6.75-0.8625 6.925-5.8879 12.763-5.8379 19.838 6.9625-3.725 2.9871-19.727 13.1-21.727zm-74.471 0.70508c3.0663 0.14492-1.8527 5.7453-1.8418 0.32031 0.80156-0.25 1.4038-0.34101 1.8418-0.32031zm-403.26 1.6348c-1.0195 0.0281-1.8734 0.1668-2.2578 0.37305-4.3875 1.075-10.064 3.1125-13.039 5.625 6.8875 2.2875 20.451-3.0004 23.551 5.1621-12.5-5.3375-6.05 3.475-17.125-0.375 4.875 5.475 14.751 4.0516 20.801-0.0859 1.4875-5.05-11.938-2.1129-6.6133-6.7754 2.2781-3.0938-2.2578-4.0082-5.3164-3.9238zm426.31 2.166c5.3513-0.28301 11.165 3.7879 9.8086 9.8691 2.7375 10.838 5.7863-18.862 8.0488-6.5996 1.7875 19.162-12.986 6.8496-22.486 3.5371-1.9375-1.8625 0.44922-5.4371 2.3867-6.4121 0.72344-0.225 1.4777-0.3541 2.2422-0.39453zm56.258 1.6816c5.6 0.7625-4.95 6.075 0 0zm-305.29 3.3008c2.3625 0.0188 4.7254 0.0934 7.0879 0.22461 7.175 13.162-25.701 14.689-14.176-0.11133 2.3625-0.0937 4.7254-0.13203 7.0879-0.11328zm-202.96 0.63672c-0.92908-0.0593-1.7226 0.2207-2.2324 0.97656-2.2 5.5875 6.7625 0.0375 4.9375 6-6.325 0.95-8.0008-6.7629-13.551-6.9629-9.7 1.175-1.1629 8.6742 4.5996 6.0117 1.1875 5.5 5.6633 5.1871 9.6758 2.6621 10.547 1.8141 1.5874-8.3672-3.4297-8.6875zm110.46 0.64844c2.8078 0.009 4.877 0.58359 2.4707 2.6523-30.362 2.0875-62.375 11.675-91.338 11.463 27.262-4.675 54.625-8.9125 81.963-13.375 0.55-0.19375 4.0965-0.74961 6.9043-0.74023zm477.29 0.16406c58.812 28.188 116.48 58.95 173.85 90 2.4 1.525 0.1 3.2887-1.9375 1.9512-53.938-28.125-108.13-56.037-161.96-84.412-2.9125-2.9125-9.1762-2.8266-9.9512-7.5391zm-13.6 0.125c66.7 33.362 134.86 67.826 200.08 103.74-34.425 1.75-68.138 10.675-102.36 15.088-17.488 3.3875-41.288 10.35-55.025-2.9121 41.125-5.4125 87.438-12.601 128.24-18.639-53.162-34.4-120.83-60.025-170.93-97.275zm-12.512 3.6387c6.325 6.85 12.174 15.237 19.986 21.037-4.125 4.1-10.237 4.5617-15.537 5.9492-3.85 7.2625 6.9125 8.8008 11.75 10.238 1.5875-6.0625-9.2492-3.375-8.5117-8.5 5.625 0.9375 15.225 4.075 14.475 10.938-18.825 5.7-35.038-15.675-54.713-8.6621 2.5875-14.162 17.089-5.9246 25.389-12.037 2-6.45 3.8496-13.025 7.1621-18.963zm-327.7 1.4121c-2.9 10.1 5.2391 11.525 13.539 10.75-0.75-6.025-7.6516-10.3-13.539-10.75zm-92.559 0.21875c-0.62173-0.01-1.2547 0.0227-1.9023 0.10547-8.7 7 18.712 8.1012 7.0996 11.889-13.9 9.4625 40.25 2.8129 20.75-3.4746-10.008 1.5234-16.621-8.3689-25.947-8.5195zm86.785 3.6055c-6.4125 8.4875 7.8375 3.575 0 0zm202.34 0.11328c-13.912 6.8125 30.188 12.45 10.938 15.562 5.5625 6.4375 8.925-2.9121 15.062-2.0371-8.6125-3.55-20.512-6.1879-26-13.525zm-81.689 1.9727c-0.6168-0.005-1.3141 0.0258-2.0977 0.10156 2.6367 8.3438 11.35-0.0222 2.0977-0.10156zm228.31 0.85156c53.6 24.025 104.03 54.988 156.9 80.625 2.05 0.725 1.4121 4.4012-1.0254 3.7637-44.05 4.6-87.886 14.425-132.17 15.6 0.275-6.6875 16.724 0.70078 20.387-4.8242 5.775-18.6-8.2488-36.512-22.111-47.375-4.05-9.9-8.0641-21.451-18.352-26.514-4.75-3.1125 3.7766-4.1613 4.3516-7.2988 0.65-6.4625-9.1891-7.0391-7.9766-13.977zm-562.56 2.1504c10.775 1.8625-15.838 4.3 0 0zm208.19 0.0879c-2.0625 9.5875 18.827 2.1992 19.164 14.262-4.15-2.4-8.6262-5.275-13.764-4.4375-3.1125 6.8 2.8875 8.6887 0.625 15.639-11.488-1.025 4.9133 7.2742 8.6133 6.8867 8.7625 1.7-0.23789-5.6992-4.5879-5.3867 2.9-0.925 4.0129-3.175 3.0254-6.0625 0.9875-7.775 17.588-1.8883 13.775-10.488-8.1625-5.15-18.927-7.4871-26.852-10.412zm-58.125 1.9043c4.1941-0.0313-9.1109 3.6168-13.438 4.8965-8.7875-0.1875 3.5516-5.7754 7.4141-4.2129 3.157-0.47343 5.0556-0.67636 6.0234-0.68359zm254.84 0.30859c-2.0375 2.575 4.6512 4.0746-2.8613 6.1621 2.1875 10.812 13.012-3.2633 18.75 3.8242-1.5 3.7625-10.538-0.72461-9.9883 4.5254 8.9 4.825 24.213-6.525 7.3008-8.1875 5.7875-7.4125-7.4512-1.4492-13.201-6.3242zm-227.18 1.0879c-0.53762-0.0489-1.0606 0.0234-1.5371 0.25-7.725 6.5125-24.412 1.3863-27.662 10.799 9.4125 2.575 21.576-2.7504 32.014-3.7129 5.4469-0.72187 0.9489-6.9933-2.8144-7.3359zm-5.2246 4.1621c9.925 0.8125-18.361 7.1371-20.174 4.9746 4.95-3.8625 13.936-2.5496 20.174-4.9746zm235.32 0.41993c2.3107 0.22617-2.5051 5.6711-2.8809 0.86718 1.4344-0.69375 2.3476-0.91938 2.8809-0.86718zm107.29 0.43945c5.1484 0.21799-2.2461 7.1777-1.2031 0.0527 0.46094-0.0516 0.8599-0.0673 1.2031-0.0527zm-155.51 0.62109c-1.1629 0.008-2.3641 0.19492-3.584 0.60742-1.0375 5.95 11.487-0.21367 11.1 6.1113-5.7125-0.9375-11.701-2.9867-17.363-0.88672-0.375 7.325 11.088-0.60039 14.863 3.0996 13.877 7.7031 6.226-9.0058-5.0156-8.9316zm-139.86 3.9941c3.6499-0.39255-1.2023 6.007-2.1211 0.63672 0.90469-0.3875 1.5997-0.58064 2.1211-0.63672zm50.129 0.59961c2.975 7.2875-12.113 12.712 2.0371 16.312-7.4 4.95-3.5625 5.9371 0 14.475 7.95-4.8875 11.687-3.775 3.7246-11.125 5.975 4.8 15.838 1.5266 8.9883-6.2109 7.4375-8.3125-10.888-10.764-14.75-13.451zm111.38 3.6621c-6 8.0375 9.925 1.475 0 0zm-21.104 2.2109c-0.53467-0.004-1.1441 0.0258-1.834 0.10156 1.2188 8.2383 9.854-0.0342 1.834-0.10156zm126.2 0.1289c2.0775 0.0254 3.2773 0.98243 0.43359 5.998-44.688 1.475-88.651 11.101-133.14 15.113-2.325-0.2-2.2863-3.6 0.26367-3.1875 42.95-5.0375 85.888-10.014 128.44-17.639 1.1953 0.0187 2.7574-0.30039 4.0039-0.28516zm-208.29 2.3438c1.7734 0.0859 3.2703 0.73671 3.6641 2.918 0.1375 6.1-15.538 1.6988-8.9883-2.4512 1.5-0.075 3.5508-0.55273 5.3242-0.46679zm233.68 0.61718c10.15 5.7125 22.788-1.8875 33.301 6.5 8.575 2.25 22.624 12.85 28.486 1.875 1.925 2.2125 2.3141 5.6629 4.3516 8.0254 0.8625 7.0625-13.862-3.5762-13.062 2.6738 14.775 2.4 27.161 11.876 33.299 25.514 3.7875 5.9125 10.238 20.225-0.88672 21.787-24.075 4.725-37.001-18.975-48.139-35.225-14.038-6.025-32.362-12.251-45.787-6.6133 13.95 2.2 36.537-1.1621 47.287 15.213 4.675 13.862 30.052 25.562 12.664 39.1-28.575 2.3625-57.95-14.774-77.5-34.361-9.6875 3.375 8.6371 12.823-3.5254 13.773-5.7625-7.05-0.275-21.124-0.375-30.049 8.6625-2.95 19.9 0.6875 26.562 7.875 9.325 0.225 19.199 5.9625 21.611 15.375 0.275 3.8125 7.0512 6.3004 8.2012 1.9004-2.4-6.6875-12.8-8.8125-13.588-16.125 8.9625 0.05 13.324 9.5117 21.012 12.137-5.0125-7.225-19.75-24.1-27-14-9.75-7.0375-24.736-8.5117-32.773-14.199 16.812-8.9625 40.412-8.875 58.537-1.6875 1.0625 5.075 12.037 8.5609 8.5996-0.60156-22.188-4.9375-53.112-18.961-70.012 1.5391-6.925-18.675 18.149-13.388 28.736-20.426zm-347.69 5.6465c14.544 0.24079 26.389 11.977 39.689 17.129 40.662 20.738 81.326 40.925 122.95 59.475-6.0875 7.65 5.5738 14.412 1.7363 2.3242 12.85 3.5125 26.238 10.475 37.312 16.213-11.212 5.5-28.062 1.5254-40.975 6.0879-14.188-2.5 3.2492-9.5133 5.8867-9.8633-5.7125-2.05-10.886-5.5109-13.648-11.148-0.2375 7.875-8.2387 1.2734-4.0137-2.7891-11.988 0.4-2.4379 16.189 5.4121 11.852 9.275-0.2875-1.15 3.5246-2.5 6.5996-62.362-28.6-123.7-59.575-184.36-91.65-0.15-6.9 20.15-0.62422 26.1-3.5742 2.2-0.4875 4.3324-0.68869 6.4102-0.65429zm10.039 5.0898c-0.5509-0.0241-1.1031 0.0594-1.625 0.28906-8.675 5.2125 7.1379 6.775 5.5254 12.75-6.55 2.3-11.536-2.1621-17.174-4.2871 3.225 6.375 13.849 9.3625 20.387 5.5 3.85-5.125-8.8867-8.3016-5.8867-11.227 6.4641 2.5812 2.6298-2.8564-1.2266-3.0254zm-75.789 2.2617c-5.165 0.1337-10.968 2.9086-12.859 6.3398 5.6625-1.1125 13.775-4.5746 17.475-2.7871-6.6125 2.875-20.437 7.3984-25.287 7.3359 12.112-2.35-2.9008-15.575-7.9883-7.9375 0.425 5.8875 7.6129-4.075 8.3379 1.9375-4.9375 5.3125-12.45 7.7508-19.4 8.8633-8.2875-5.4-16.274-14.574-27.199-13.074 0.55 9.9 25.724 20.048 37.262 12.336 6.475 2.875-10.425 2.5758-9.1504 8.4883 10.088-1.875 20.426-13.5 29.863-4.7246-2.0875 13.438 19.45 16.999 24.688 29.236 14.8 0.3-8.4383-14.086-12.801-17.424-14.638-7.0875 10.163-9.1621 14.4-12.287-5.8875-7.7875-18.137 8.8367-24.637 4.1367 3.3375-4.8375 14.036-3.0754 17.398-8.9004-5.3375 2.2-15.461 7.0008-17.611-1.2617 4.95-2.85 10.912-3.0883 16.262-4.8633-1.1047-4.025-4.7348-5.518-8.752-5.4141zm63.877 1.4766c4.5875 9.75 13.35 0.6875 0 0zm-127.67 0.23828c14.9 2.5125-2.2125 8.6875 0 0zm101.62 2.0996c56.638 25.3 110.57 57.688 167.95 82 0.725 4.175-5.4504 0.76289-7.5254-0.0371-53.688-26.412-110.67-50.7-160.42-81.963zm47 1.4004c-0.425 6.8 7.7234 7.6746 11.211 3.8496-4.8 1.5-7.1359-3.2621-11.211-3.8496zm273.12 0.65039c-0.8 4.175-7.2879 1.3617-9.7754 5.1992-5 19.75-35.2 12.8-50.838 15.562-1.9625-6.8875-16.801-17.187-18.676-7.3242-9.0625 2.6625 6.8379 11.437 11.088 6.0117 7.1125 7.9875 16.987 13.225 28.162 9.2871 12.325-1.425 33.662-2.0113 33.062-19.111 9.6 8.3875 20.189-7.125 6.9766-9.625zm-202.34 1.0996c-1.3 0.4875-5.1879 1.2879-3.9629 3.0879 11.4 1.7875 22.338 7.5359 30.75 13.898 7.75-10.588-18.9-14.374-26.787-16.986zm67.412 1.0254c0.525 9.825 2.325 22.123-3.625 33.086-2.0875 12.175 8.4379-9.5117 10.525 0.42578-3.6375 8.575 7.0879 9.7383 7.5879 2.6133-8.5625-9.7875 0.0484-23.739-0.72656-34.764-4.9625 1.425-9.1117-1.0988-13.762-1.3613zm-16.463 0.0371c-7.9875 4.7375 1.5383 18.288-3.6367 24.562 14.362 8.65 9.8871-9.0754 16.975-16.275-0.725-5.7125-8.4754-7.8496-13.338-8.2871zm-120.38 5.6484c-0.63572 0.0169-1.3195 0.22695-2.0352 0.68945-10.288 1.3375 1.0254 1.7859 2.5879 7.0859 5.9828 1.4547 3.8973-7.8938-0.55273-7.7754zm122.93 2.7871c7.4486-0.058-1.6836 8.8457-1.7188 0.13867 0.65156-0.0914 1.2222-0.1348 1.7188-0.13867zm-99.832 1.5137c-10.338 11.212 15.925 0.875 0 0zm120.88 0.0762c6.825 5.1125-5.2625 10.825 0 0zm-195.06 0.61914c-1.3732-0.0178-2.809 0.26719-4.2871 0.92969-5.625 2.8625-19.25-0.14922-20.463 6.4258 7.35-1.65 16.064-4.625 24.477-4.5625-1.95 7.075-17.176 0.86211-19.701 7.7871 8.0375 0.2875 17.038-5.2996 24.312 0.21289 4.675 2.825 10.312 14.05 15.312 7.5-6.025-3.8125-5.2996-11.813 3.6504-7.2754-12.775 2.775 7.9004 7.6375 7.9629 0.9375-5.0875-6.9125-15.963 1.0125-21.088-5.625-2.4938-3.4969-6.056-6.2768-10.176-6.3301zm66.201 5.3301c4.1125 10.812 17.9 2.4375 0 0zm17.588 1.2129c2.925 6.2875-12.877 5.1871-3.7266 9.9746 5.85 5.3125 12.589-10.212 3.7266-9.9746zm90.049 0.34961c4.1125 3.375-5.15 3.4875 0 0zm129.1 0.0879c2.375 2.2375-18.625 6.7492-23.162 3.5742 7.8375-0.375 15.437-2.3617 23.162-3.5742zm-110.4 3.5254c10.688 1.9-6.05 9.0125 0 0zm-207.58 3.3359c5.9875 10.062 10.25 5.0375 0 0zm121.12 0.25c-7.1875 6.05-5.6996 14.238 2.5879 17.338 2.85-4.0625 5.3621-16.15-2.5879-17.338zm-108.63 0.26563c-0.31048 0.008-0.62187 0.0316-0.93359 0.0723-7.4625 7.7125 8.2012 1.6254 12.076 7.3379-2.0391-4.1016-6.4853-7.5328-11.143-7.4102zm2.9043 6.8105c-0.6 8.5875-20.351 4.0746-21.613 12.537 8.8 7.8875 21.263-4.0004 31.426-2.5254-3.3375-3.275-6.1-7.2117-9.8125-10.012zm115.95 0.32422c1.0625 4.7125 0.27617 16.788 8.5137 12.688 8.5625-5.825-3.3387-9.7875-8.5137-12.688zm-81.879 0.14063c-0.91076-0.0149-2.8688 0.15273-6.2578 0.58398-3.0875 0.8375-8.0133 0.45-9.6133 3.375 4.1031-0.39609 19.818-3.8945 15.871-3.959zm10.605 2.7852c-9.125 6.1625 6.7875 2.6125 0 0zm-43.588 1.5254c6.85 4.65-14.438 6.4109-20.025 8.3359 3.075-6.2125 13.6-5.5359 20.025-8.3359zm354.17 3.2109c11.538 0.3125 20.563 9.8387 31.838 12.201 15.675 9.975 42.337 20.95 54.412 0.58789 22.95-0.225-13.699 10.437 2.2637 9.0117 11.238-5.6625 25.775-2.1383 34.088 5.5117-15.725 4.925-32.389 5.0629-48.352 8.7754-25.888-8.1625-53-22.675-74.25-36.088zm-209.31 3.6992c-0.85802-0.0409-1.7039 0.0477-2.4609 0.27734-2.175 5.025 4.0117 7.9738 8.0742 6.6113 2.0516-4.1031-1.8952-6.7114-5.6133-6.8887zm-63.387 2.4766c-13.038-0.2125 5.8633 11.899 6.1133 15.449-8.725 2.6125-20.263 13.377-27.963 4.4141 4.9875-7.2625 28.15-2.4512 13.6-15.014-13.1 5.375-26.85 9.2746-40.85 11.412-0.575 11.3 13.112 4.6383 19.975 3.8633 0.975 5.875-12.437 1.0996-9.7246 6.8496 2.7 9.675 13.962-4.1254 18.938 3.5996 7.375 3.85-12.089 8.7008-2.5762 7.5508 13.875-3.65 2.1879 1.5742-2.7871 3.6992 0.075 4.775 10.425-4.4996 14.412-1.5996 2.25 6.575-14.811 7.6883-5.4609 13.301 9.175-0.5125 13.436-12.013 22.486-14.238 7.075-2.7625-10.638-5.9617-4.8125-1.2617 0.9125 5.475-12.4-4.7633-3.6621-4.7383 10.15-2.55-4.1379-4.3121-7.9629-0.47461-6.3875 4.675-11.863-8.5758-16.525-12.801 6.65-2.45 10.588 10.251 16.525 12.801 0.1625-15.338 24.9 0.41328 27.037 9.6133-3.275 3.875-14.049 0.39883-16.012 6.3613 6.6375 7.5375 27.826-10.938 24.363 4.1621 7.7625 7.4875 23.524 30.239 31.674 17.539-18.825-8.65 6.1621-9.1629 15.1-11.713-6.65-15.612-28.098 6.9875-37.898-5.9375-8.6625 6.4125-7.2641-10.9 0.83594-9.2871 4.6875 3.975 13.563 11.725 18.088 5.7246-7.9-8.4125-18.099-15.025-27.236-21.588-14.712 4.0875 13.161 11.462 1.3984 16.062-8.075-5.05-12.525-15.275-22.162-17.85 1.2375-5.575 14.05-1.4387 15.85-8.2012-8.825-4.8125-16.349-7.0617-20.762-17.699zm545.65 1.6797c3.0793 0.14966 0.38868 5.9785-3.3711 5.0703-43.912 5.3125-90.925 14.512-132.62 18.438 42.05-9.8 88.287-15.338 131.95-22.025 1.8703-1.1211 3.1847-1.5243 4.0469-1.4824zm-472.73 0.94727c-0.26682-0.0125-0.55195 0.0148-0.86133 0.0859 3.9375 17.625-22.989-8.3621-21.514 6.8379 10.525-3.625 18.913 4.2734 28.338 6.6484-4.375-7.6125 12.362-4.6625 4.4492-8.6875-6.8086 4.1719-6.4098-4.6971-10.412-4.8848zm205.41 2.1348c15.038 3.1625 6.6 8.1 0 0zm-35.047 1.4551c-7.9823 0.10066-16.679 1.5164-23.127 0.57031-13.938 12.012-36.439-5.0996-48.201 9.7754 8.85 31 52.513 5.7633 69.588 19.176-10.875-0.7625-42.499-8.0887-48.074 10.611 6.175 14.925 26.825 15.225 40.125 11.412 16.575-1.75 41.387 2.7504 53.262-11.85 7.325-17.712-16.637-16.938-27.262-15.812-16.612-0.9 7.4492-1.5875 4.6367-9.9375-1.6031-12.03-10.684-14.075-20.947-13.945zm-18.539 3.084c10.55 1.1375 23.162-1.5375 32.562 3.1875-13.7 7.175-30.264-2.075-43.139 2.375-0.525-6.0625 6.3137-4.85 10.576-5.5625zm-237.06 0.02c12.725 0.925-22.676 11.262-27.926 8.625 7.7875-4.7125 18.801-5.75 27.926-8.625zm304.69 2.9004c16.85 4.125 31.788 14.675 48.812 18.5 3.1625 5.525-5.7367 2.3492-8.4492 1.0117-13.05-6.6625-28.851-11.562-40.363-19.512zm-105.96 1.0547c24.435-0.50454 47.661 17.605 71.688 5.1328 5.6375-3.375 3.7633 4.225-0.19922 5.1875-19.188 5.0875-39.963-0.375-59.676 3.5625-6.775-1.425-24.212-5.4867-19.438-13.074 2.5559-0.50507 5.0972-0.7564 7.625-0.80859zm-122.96 0.44531c0.775 4.325 8.1391 4.3758 11.977 5.9258 0.4625-5.175-8.5641-5.4883-11.977-5.9258zm-52.062 1.875c5.6125 2.4375-11.737 8.7383-14.412 7.1133 4.8-2.375 9.6746-4.6133 14.412-7.1133zm-71.574 0.96289c-6.3875 4.3375 7.8129 11.463 10.4 16.713 12.962 0.975-5.4879-16.8-10.4-16.713zm313.96 0.125c8 2.85-27.488 5.6121-30 1.0996 10-1.975 20.212 2.5379 30-1.0996zm148.05 6.666c4.6844 0.1062 8.8926 6.1734-0.70508 4.5586-10.075-0.375-22.675 5.9875-31.463 3.1875 6.3125-5.3375 20.301-3.7867 29.014-6.6992 0.96797-0.77812 2.0733-1.0714 3.1543-1.0469zm-385.29 1.0703c-10.3 4.4125 8.9625 3.2375 0 0zm-45.182 0.55078c5.3479-0.003-12.132 4.9871-3.8301 0.34961 1.8375-0.24687 3.0661-0.34917 3.8301-0.34961zm212.82 1.3c7.6875 3.4375 17.1 0.0238 24.213 4.0488-5.9625 1.5875-21.4 2.5262-24.213-4.0488zm-233.86 1.3027c3.0589 0.16064-1.9164 5.7226-1.8398 0.30859 0.80313-0.24531 1.4029-0.33154 1.8398-0.30859zm272.02 0.92773c7.8436-0.0128 15.061 0.42188 4.6309 1.5938-3.2-1.9625-21.925 4.6621-15.75-1.1504 1.4812-0.26719 6.413-0.43567 11.119-0.44336zm47.666 3.457c3.1765 0.0524 6.0254 0.44727 8.166 1.5996-8.25 1.775-24.664 6.2254-29.889-1.4121 6.1531 1.2375 14.734-0.30281 21.723-0.1875zm8.8652 3.5234c9.65 1.3875-13.301 5.2516-14.301 3.3516 3.7125-2.15 10.013-0.55156 14.301-3.3516zm-122.46 0.0723c2.2855 0.17404 2.4355 5.1559 0.18945 5.3535-12.512 2.6125-25.5 1.7504-37.963 4.7129-8.5 7.3625-6.4359-9.5012 0.53906-3.3887 11.225-1.1125 22.573-1.4621 33.586-4.0996 1.5328-1.9793 2.7541-2.6462 3.6484-2.5781zm-124.34 0.55273c5.8875 3.3875 13.452 7.0383 17.039 12.801-6.675-1.9125-12.589-7.5758-17.039-12.801zm180.51 0.72656c8.0827-0.18531 12.223 4.7766-1.8633 1.75 7.25 5.1375 19.939 4.2363 28.639 0.17383 13.625 4.5625 28.624 5.5008 42.324 0.67578 7.4375-5.4125 4.8133 1.3254 3.1758 3.4629-14.075 8.325-31.088 1.5617-46.125 5.1992-12.425 4.025-26.589 3.3754-37.914-3.2871-4.2-3.4125 2.4129-6.9008 5.7129-6.8633 2.1094-0.75234 4.1856-1.0686 6.0508-1.1113zm38.551 0.16211c2.184 0.0857-0.19844 4.4418-2.3008 0.77539 1.05-0.58593 1.7968-0.79515 2.3008-0.77539zm-20.002 0.90039c1.95 4.6875-8.2375 0.3125 0 0zm-158.77 2.43c-5.6375 6.175 7.8508 9.9246 11.051 13.162 5.2875 2.2 12.723 15.576 18.336 7.6133-5.8625-6.9-18.562-17.575-29.387-20.775zm0.96289 1.9375c9.1125 0.825 3.775 7.5875 0 0zm-86.076 5.4512c3.275 4.1125-6.4125 1.4125 0 0zm256.11 4.9746c8.25-0.0375-3.55 5.4375 0 0zm-17.412 1.8184c2.0212-0.0472 3.841 0.29024 5.0879 1.6309-3.6-1.175-16.15 5.25-15.15-1.0625 2.7656 0.65625 6.6938-0.48974 10.062-0.56836zm-162.88 1.6309c6.4616-0.006-14.128 6.8324-17.355 3.9004-0.625-5.4 7.4262-1.6754 10.701-3.0879 3.334-0.57617 5.4577-0.81134 6.6543-0.8125zm-30.092 0.34961c5.0375 2.3625 11.049 5.1141 12.887 10.789-5.3375-2.0375-11.862-4.4266-12.887-10.789zm-7.0879 9.2129c7.55 0.1375 0.925 6.6125 0 0zm135.89 0.4961c-0.5967 0.0294-1.209 0.17382-1.8242 0.45507-7.95 4.3-20.339 4.1738-25.576 10.736 6.4375 8.5375 18.825-0.68789 27.125-2.9004 10.275 1.7332 6.0435-8.5757 0.27539-8.291zm154.58 0.61718c-48.488 8.4875-97.213 19.1-145.86 28.025-9.7875 0.9625-25.587 3.5625-25.762 15.938 16.8 8.45 34.636 16.474 52.211 23.924 53.062-12.462 108.23-19.399 160.51-33.199-0.1375-18.475-29.787-24.112-41.1-34.688zm-200.06 0.98c6.625 13.238-35.376 6.9758-15.801 15.988 5.675-6 36.588-11.638 15.801-15.988zm-5.0117 2.5879c-11.6 2.3375 2.0875 5.4625 0 0zm46.045 0.0859c7.7184 0.12506-17.234 12.695-20.434 5.8633 6.2875-1.4375 12.35-3.6504 18.438-5.7129 0.82109-0.11172 1.4815-0.15873 1.9961-0.15039zm153.77 1.2891c15.2 2.6125 27.324 14.45 41.074 21.188-14.5 3.55-29.324 5.7992-44.074 7.9492 0.575-3.1125 1.9371-6.4504-1.9629-7.7129 3.6-7 37.912-6.0359 16.012-14.461-9.025 6.8125-20.825 4.1734-29.412 7.0859-0.775 6.5125 12.087 7.8016 13.012 15.539-31.425 7.125-63.35 12.024-94.787 19.111-20 6.2125-40.388-7.8613-55.188-18.111 50.125-10.962 103.75-20.9 155.33-30.588zm-4.0625 6.0879c-24.425 6.4125 19.525 3.0625 0 0zm-190.3 1.0859c2.625 4.625 8.6875 6.9891 13.625 8.7891-2.5375-4.7375-8.725-6.8391-13.625-8.7891zm-1.2246 3.7383c3.2375 6.5625 12.487 11.013 19.85 10.713 0.2125-8.7375-14.437-2.2004-19.85-10.713zm165.45 3.9004c-7.025 0.9125-3.3754 2.0129-1.7754 6.0254-9.2625-3.3875-13.711 4.2117-22.799 0.82422-0.7375 7.0625 11.937 7.8875 13.824 3.4375 7 1.1125 32.475-4.3246 10.75-10.287zm22.113 0.99024c3.9886-0.29718-2.1328 5.5605-0.9375 0.14648 0.36094-0.0797 0.67159-0.12667 0.9375-0.14648zm-67.221 3.8965c-0.2858 0.007-0.5711 0.025-0.85547 0.0508-4.25 5.1625-14.175 1.2363-17.85 8.5488 4.2125 2.05 13.489-1.4984 13.451 4.9141-3.05-0.4-7.0625-2.4383-8.9375 1.1992-5 4.65 9.0988 9.8375 7.2363 2.9375-1.8-8.575 10.337 6.9504 11.475-1.0996-6.725-7.8375 9.9129 3.1 9.2129-3.75-4.7-6.4-13.849-1.4137-20.299-4.3262 4.0375-4.7 18.3 3.7754 19.037-4.7246-3.7617-1.9688-8.1837-3.8611-12.471-3.75zm110.7 5.8867c3.278 0.1519-2.3707 6.3418-6.5684 4.6016-18.525 2.2125-40.025 10.4-56.6 10.812 17.375-9.3 40.949-8.7246 60.361-14.787 1.2852-0.47461 2.1996-0.65508 2.8066-0.62695zm-138.07 1.58c-0.31161-0.001-0.63321 0.0289-0.9668 0.0898-1.075 5.1625-7.7125 8.5109-4.3125 1.0234-6.3 4.2375-13.899 4.9383-22.074 3.5508 0.5875 6.7125 9.0121 11.288 13.037 16.363 3.3125-11.088 18.388-3.6004 24.125-11.15-2.8359-3.1992-5.1345-9.8603-9.8086-9.877zm0.18359 3.6133c8.35 4.6875-9.1875 6.4625 0 0zm-6.8496 5.0039c3.9886-0.29718-2.1328 5.5605-0.9375 0.14648 0.36094-0.0797 0.67159-0.12667 0.9375-0.14648zm-7.5996 1.1465c8.0539-0.16397-6.5547 6.2422-1.9258 0.125 0.75078-0.075 1.3888-0.11407 1.9258-0.125zm-38.312 1.2246c12.038 4.55 28.049 8.9383 35.799 18.488-11.825-5.525-26.899-10.038-35.799-18.488zm121.16 1.5762c3.7577-0.27088-2.3484 6.9566-5.7812 4.2246-21.15 2.225-41.675 8.5242-62.812 10.512 18.575-6.6625 43.137-9.1492 64.262-13.137 2.0719-1.0758 3.4649-1.5371 4.332-1.5996z" transform="scale(.8)"/>
</svg>
